<svg width="600" height="600" viewBox="0 0 600 600" fill="none" xmlns="http://www.w3.org/2000/svg">
<g clip-path="url(#clip0_1_2)">
<rect width="600" height="600" rx="300" fill="white"/>
<g clip-path="url(#clip1_1_2)">
<path d="M0 0H1200V600H0V0Z" fill="#CE1720"/>
<mask id="mask0_1_2" style="mask-type:luminance" maskUnits="userSpaceOnUse" x="6" y="0" width="140" height="600">
<path d="M6.34918 0H139.683V405.333H145.016V594.667L139.683 600H6.34918V0Z" fill="white"/>
</mask>
<g mask="url(#mask0_1_2)">
<path d="M30.3492 0V9.33333H24.3492V18.6667H17.0158V29.3333H11.6825V38H1.01584V16H11.6825V4H1.01584V0H30.3492ZM47.6825 51.3333V61.3333H42.3492V69.3333H37.0158V61.3333H31.6825V51.3333H26.3492V38H31.6825V28H37.0158V20H42.3492V28H47.6825V38H53.0158V51.3333H47.6825ZM36.3492 50.6667H43.0158V38.6667H36.3492V50.6667ZM19.0158 122H24.3492V110H19.0158V122ZM55.0158 122H60.3492V110H55.0158V122ZM1.01584 203.333H10.3492V212H14.3492V222.667H20.3492V232.667H28.3492V222.667H34.3492V212H39.6825V203.333H31.6825V193.333H45.6825V200H54.3492V211.333H61.6825V224H56.3492V233.333H51.6825V242H47.6825V251.333H41.6825V259.333H37.0158V266.667H31.0158V276H22.3492V266H16.3492V256.667H11.6825V250.667H1.01584V235.333H11.6825V222H1.01584V203.333Z" fill="white"/>
<path d="M115.683 0V9.33333H121.683V18.6667H129.016V29.3333H134.349V38H145.016V16H134.349V4H145.016V0H115.683ZM98.3492 51.3333V61.3333H103.683V69.3333H109.016V61.3333H114.349V51.3333H119.683V38H114.349V28H109.016V20H103.683V28H98.3492V38H93.0158V51.3333H98.3492ZM109.683 50.6667H103.016V38.6667H109.683V50.6667ZM127.016 122H121.683V110H127.016V122ZM91.0158 122H85.6825V110H91.0158V122ZM145.016 203.333H135.683V212H131.683V222.667H125.683V232.667H117.683V222.667H111.683V212H106.349V203.333H114.349V193.333H100.349V200H91.6825V211.333H84.3492V224H89.6825V233.333H94.3492V242H98.3492V251.333H104.349V259.333H109.016V266.667H115.016V276H123.683V266H129.683V256.667H134.349V250.667H145.016V235.333H134.349V222H145.016V203.333Z" fill="white"/>
<path d="M70.3492 0V21.3333H75.6825V0H97.0158V9.33333H91.6825V18.6667H83.6825V29.3333H78.3492V38H67.6825V29.3333H62.3492V18.6667H54.3492V9.33333H49.0158V0H70.3492ZM69.0158 182.667V175.333H65.0158V166.667H60.3492V157.333H55.0158V148H49.6825V141.333H43.6825V132H35.6825V141.333H29.6825V148H25.0158V157.333H19.6825V166.667H15.6825V175.333H11.6825V186.667H1.01584V157.333H11.6825V144H1.01584V122H11.6825V131.333H18.3492V140.667H25.0158V131.333H31.6825V122H37.0158V110H31.6825V100.667H25.0158V91.3333H18.3492V100.667H11.6825V110H1.01584V82.6667H11.6825V70H1.01584V51.3333H11.6825V60H17.0158V70.6667H24.3492V79.3333H30.3492V89.3333H35.0158V97.3333H44.3492V89.3333H49.0158V79.3333H55.0158V70.6667H62.3492V60H67.6825V51.3333H78.3492V60H83.6825V70.6667H91.0158V79.3333H97.0158V89.3333H101.683V97.3333H111.016V89.3333H115.683V79.3333H121.683V70.6667H129.016V60H134.349V51.3333H145.016V70H134.349V82.6667H145.016V110H134.349V100.667H127.683V91.3333H121.016V100.667H114.349V110H109.016V122H114.349V131.333H121.016V140.667H127.683V131.333H134.349V122H145.016V144H134.349V157.333H145.016V186.667H134.349V175.333H130.349V166.667H126.349V157.333H121.016V148H116.349V141.333H110.349V132H102.349V141.333H96.3492V148H91.0158V157.333H85.6825V166.667H81.0158V175.333H77.0158V182.667H69.0158ZM70.3492 71.3333V89.3333H75.6825V71.3333H70.3492ZM67.6825 110V100.667H61.0158V91.3333H54.3492V100.667H47.6825V110H42.3492V122H47.6825V131.333H54.3492V140.667H61.0158V131.333H67.6825V122H78.3492V131.333H85.0158V140.667H91.6825V131.333H98.3492V122H103.683V110H98.3492V100.667H91.6825V91.3333H85.0158V100.667H78.3492V110H67.6825ZM70.3492 140.667V158.667H75.6825V140.667H70.3492Z" fill="white"/>
<path d="M30.3492 600V590.667H24.3492V581.333H17.0158V570.667H11.6825V562H1.01584V584H11.6825V596H1.01584V600H30.3492ZM47.6825 548.667V538.667H42.3492V530.667H37.0158V538.667H31.6825V548.667H26.3492V562H31.6825V572H37.0158V580H42.3492V572H47.6825V562H53.0158V548.667H47.6825ZM36.3492 549.333H43.0158V561.333H36.3492V549.333ZM19.0158 478H24.3492V490H19.0158V478ZM55.0158 478H60.3492V490H55.0158V478ZM1.01584 396.667H10.3492V388H14.3492V377.333H20.3492V367.333H28.3492V377.333H34.3492V388H39.6825V396.667H31.6825V406.667H45.6825V400H54.3492V388.667H61.6825V376H56.3492V366.667H51.6825V358H47.6825V348.667H41.6825V340.667H37.0158V333.333H31.0158V324H22.3492V334H16.3492V343.333H11.6825V349.333H1.01584V364.667H11.6825V378H1.01584V396.667Z" fill="white"/>
<path d="M115.683 600V590.667H121.683V581.333H129.016V570.667H134.349V562H145.016V584H134.349V596H145.016V600H115.683ZM98.3492 548.667V538.667H103.683V530.667H109.016V538.667H114.349V548.667H119.683V562H114.349V572H109.016V580H103.683V572H98.3492V562H93.0158V548.667H98.3492ZM109.683 549.333H103.016V561.333H109.683V549.333ZM127.016 478H121.683V490H127.016V478ZM91.0158 478H85.6825V490H91.0158V478ZM145.016 396.667H135.683V388H131.683V377.333H125.683V367.333H117.683V377.333H111.683V388H106.349V396.667H114.349V406.667H100.349V400H91.6825V388.667H84.3492V376H89.6825V366.667H94.3492V358H98.3492V348.667H104.349V340.667H109.016V333.333H115.016V324H123.683V334H129.683V343.333H134.349V349.333H145.016V364.667H134.349V378H145.016V396.667Z" fill="white"/>
<path d="M70.3492 600V578.667H75.6825V600H97.0158V590.667H91.6825V581.333H83.6825V570.667H78.3492V562H67.6825V570.667H62.3492V581.333H54.3492V590.667H49.0158V600H70.3492ZM69.0158 417.333V424.667H65.0158V433.333H60.3492V442.667H55.0158V452H49.6825V458.667H43.6825V468H35.6825V458.667H29.6825V452H25.0158V442.667H19.6825V433.333H15.6825V424.667H11.6825V413.333H1.01584V442.667H11.6825V456H1.01584V478H11.6825V468.667H18.3492V459.333H25.0158V468.667H31.6825V478H37.0158V490H31.6825V499.333H25.0158V508.667H18.3492V499.333H11.6825V490H1.01584V517.333H11.6825V530H1.01584V548.667H11.6825V540H17.0158V529.333H24.3492V520.667H30.3492V510.667H35.0158V502.667H44.3492V510.667H49.0158V520.667H55.0158V529.333H62.3492V540H67.6825V548.667H78.3492V540H83.6825V529.333H91.0158V520.667H97.0158V510.667H101.683V502.667H111.016V510.667H115.683V520.667H121.683V529.333H129.016V540H134.349V548.667H145.016V530H134.349V517.333H145.016V490H134.349V499.333H127.683V508.667H121.016V499.333H114.349V490H109.016V478H114.349V468.667H121.016V459.333H127.683V468.667H134.349V478H145.016V456H134.349V442.667H145.016V413.333H134.349V424.667H130.349V433.333H126.349V442.667H121.016V452H116.349V458.667H110.349V468H102.349V458.667H96.3492V452H91.0158V442.667H85.6825V433.333H81.0158V424.667H77.0158V417.333H69.0158ZM70.3492 528.667V510.667H75.6825V528.667H70.3492ZM67.6825 490V499.333H61.0158V508.667H54.3492V499.333H47.6825V490H42.3492V478H47.6825V468.667H54.3492V459.333H61.0158V468.667H67.6825V478H78.3492V468.667H85.0158V459.333H91.6825V468.667H98.3492V478H103.683V490H98.3492V499.333H91.6825V508.667H85.0158V499.333H78.3492V490H67.6825ZM70.3492 459.333V441.333H75.6825V459.333H70.3492Z" fill="white"/>
<path d="M1.01584 272H11.6825V281.333H16.3492V286.667H21.6825V296H26.3492V304H21.6825V313.333H16.3492V318.667H11.6825V328H1.01584V272ZM145.016 272V328H134.349V318.667H129.683V313.333H124.349V304H119.683V296H124.349V286.667H129.683V281.333H134.349V272H145.016ZM47.6825 306H53.0158V294H47.6825V306ZM98.3492 306V294H93.0158V306H98.3492ZM70.3492 266.667H75.6825V254.667H70.3492V266.667ZM70.3492 333.333V345.333H75.6825V333.333H70.3492ZM37.0158 283.333H46.3492V276H53.0158V269.333H56.3492V262.667H60.3492V253.333H65.6825V244H68.3492V235.333H77.6825V244H80.3492V253.333H85.6825V262.667H89.6825V269.333H93.0158V276H99.6825V283.333H109.016V316.667H99.6825V324H93.0158V330.667H89.6825V337.333H85.6825V346.667H80.3492V356H77.6825V364.667H68.3492V356H65.6825V346.667H60.3492V337.333H56.3492V330.667H53.0158V324H46.3492V316.667H37.0158V283.333ZM70.3492 289.333V279.333H65.0158V272.667H59.6825V289.333H65.0158V295.333H68.3492V304.667H65.0158V310.667H59.6825V327.333H65.0158V320.667H70.3492V310.667H75.6825V320.667H81.0158V327.333H86.3492V310.667H81.0158V304.667H77.6825V295.333H81.0158V289.333H86.3492V272.667H81.0158V279.333H75.6825V289.333H70.3492Z" fill="white"/>
</g>
<path d="M139.683 400H1200V600H139.683V400Z" fill="#007C30"/>
</g>
</g>
<defs>
<clipPath id="clip0_1_2">
<rect width="600" height="600" rx="300" fill="white"/>
</clipPath>
<clipPath id="clip1_1_2">
<rect width="1200" height="600" fill="white"/>
</clipPath>
</defs>
</svg>
