<svg width="311" height="152" viewBox="0 0 311 152" fill="none" xmlns="http://www.w3.org/2000/svg">
<g filter="url(#filter0_d_1_221)">
<rect x="5" y="21.2318" width="92.5" height="124.5" rx="13.4694" transform="rotate(-12 5 21.2318)" fill="#658BFF"/>
</g>
<path fill-rule="evenodd" clip-rule="evenodd" d="M41.1787 66.7174C40.7416 66.8103 40.2698 66.6844 39.9361 66.337C38.8675 65.2088 37.057 64.0257 35.3568 64.4483C34.6173 64.5646 33.9195 64.1824 33.7471 63.4674C33.5768 62.7536 34.0072 62.038 34.7264 61.8579C37.4435 61.1937 40.2235 62.7829 41.862 64.4991C42.3655 65.0299 42.3458 65.8724 41.8174 66.3827C41.6362 66.5606 41.4143 66.6673 41.1787 66.7174Z" fill="#664C33"/>
<path fill-rule="evenodd" clip-rule="evenodd" d="M64.1028 43.73C63.3865 41.231 60.8536 39.6777 58.283 40.2241C58.27 40.2269 58.2635 40.2282 58.257 40.2296C58.2212 39.8376 58.1088 39.4364 57.8983 39.0372C57.2961 37.9221 56.0536 37.2305 54.7925 37.3455C53.7627 37.4385 52.9132 37.9966 52.3966 38.7782C51.6618 38.3493 50.7815 38.1708 49.8862 38.3611C47.9622 38.7701 46.733 40.6656 47.1425 42.5921C47.1439 42.5986 47.1453 42.6051 47.1463 42.61C44.848 43.2788 43.4216 45.621 43.9297 48.0111C44.0068 48.374 44.1312 48.7115 44.287 49.0372C41.5248 49.745 39.7963 52.5035 40.3946 55.3183C40.5973 56.2718 41.04 57.1079 41.6488 57.7829C40.9457 58.6619 40.6269 59.8469 40.8808 61.0412C41.1118 62.1281 41.7831 63.0092 42.6627 63.5518C45.2514 60.318 50.3708 68.1987 55.7042 74.2263C57.4762 76.2271 70.8758 70.8484 72.2855 72.0232C73.308 70.6171 69.9159 50.6317 69.5767 48.8842C69.0405 46.0817 66.7642 44.0741 64.1028 43.73Z" fill="#88C057"/>
<path fill-rule="evenodd" clip-rule="evenodd" d="M71.3964 69.3024L72.2051 68.5524C73.699 67.1515 75.8439 66.6956 77.7785 67.3677L78.8223 67.724C80.7555 68.3896 82.9004 67.9337 84.3958 66.5393L86.7695 64.8189C86.9201 63.6577 87.0236 62.8262 87.0579 62.4601C87.8279 54.0655 87.6407 45.4425 86.099 37.1346C85.4818 33.7915 81.6315 29.1884 77.5685 32.5179C73.5784 35.7825 72.2538 45.3391 70.8955 50.0307C68.9636 56.7063 67.8089 63.7541 67.4186 70.7789C68.8613 70.831 70.2982 70.3199 71.3964 69.3024Z" fill="#EEAF4B"/>
<path fill-rule="evenodd" clip-rule="evenodd" d="M37.3128 75.1527L39.2872 75.8282C41.5506 76.6089 44.0627 76.075 45.8129 74.4411L46.2049 74.0721C47.7003 72.6778 49.8452 72.2218 51.7784 72.8874L52.8235 73.2503C53.9609 73.6394 55.1613 73.6377 56.2691 73.2883C56.5281 70.4238 55.5337 67.1201 53.7616 65.1193C47.7987 58.3753 44.5253 60.7053 41.7595 64.7675C41.2285 65.5453 40.5159 66.1882 39.6811 66.631C36.1033 68.5275 33.6781 70.9085 36.3079 75.419C36.5442 75.1562 36.9253 75.0157 37.3128 75.1527Z" fill="#FD7D63"/>
<path fill-rule="evenodd" clip-rule="evenodd" d="M74.0942 65.7666C73.9544 65.7963 73.8105 65.8065 73.6601 65.7858C72.9321 65.7007 72.4147 65.0403 72.4976 64.3119C72.824 61.5726 75.3137 59.6149 78.0487 59.9297C79.3279 60.083 80.4932 59.1653 80.6452 57.883C80.7271 57.1496 81.3877 56.63 82.1202 56.7124C82.8496 56.8039 83.3686 57.464 83.284 58.1928C82.9577 60.9321 80.4693 62.8963 77.7346 62.5746C76.4554 62.4213 75.2901 63.3391 75.1381 64.6213C75.0707 65.207 74.6336 65.652 74.0942 65.7666Z" fill="#D59127"/>
<path fill-rule="evenodd" clip-rule="evenodd" d="M75.2391 56.0441C75.1059 56.0725 74.9555 56.084 74.8064 56.0698C74.077 55.9782 73.558 55.3182 73.6426 54.5894C73.8048 53.2591 74.4672 52.069 75.5111 51.2434C76.5577 50.4223 77.8663 50.0506 79.192 50.2076C80.4793 50.3591 81.6365 49.4431 81.7872 48.1544C81.8717 47.4255 82.5375 46.9065 83.2651 46.9899C83.9945 47.0815 84.5135 47.7415 84.429 48.4703C84.1026 51.2096 81.6143 53.1738 78.8795 52.8521C78.2592 52.7782 77.6448 52.9479 77.1569 53.3373C76.6693 53.7198 76.3565 54.2778 76.283 54.8988C76.214 55.4849 75.7851 55.9281 75.2391 56.0441Z" fill="#D59127"/>
<path fill-rule="evenodd" clip-rule="evenodd" d="M76.3887 46.319C76.2489 46.3487 76.1054 46.3605 75.9559 46.3447C75.2269 46.2547 74.703 45.5957 74.7924 44.8659C75.0711 42.4615 77.2594 40.7396 79.661 41.02C80.1244 41.0745 80.5744 40.9465 80.9323 40.6647C81.2963 40.3799 81.5278 39.9667 81.5818 39.5097C81.6663 38.7809 82.3239 38.2551 83.0598 38.3452C83.7878 38.4303 84.3068 39.0903 84.2236 39.8257C84.0806 40.9904 83.4988 42.0323 82.5832 42.7507C81.6629 43.4786 80.5108 43.8035 79.3468 43.6648C78.4009 43.553 77.5437 44.2266 77.4339 45.1802C77.3651 45.7594 76.9281 46.2043 76.3887 46.319Z" fill="#D59127"/>
<path fill-rule="evenodd" clip-rule="evenodd" d="M55.3689 55.79C54.4845 57.6854 52.9611 60.0346 54.4306 63.2969L58.397 72.0656L59.2056 71.3155C60.6996 69.9147 62.8445 69.4587 64.7791 70.1308L65.8229 70.4871C66.6743 70.7772 67.4185 70.7789 67.4185 70.7789C67.7125 65.5143 68.4328 60.2339 69.5929 55.1049C68.0488 52.8023 65.7225 52.4125 63.9773 51.8804C63.9659 51.8829 63.958 51.8777 63.9501 51.8726C62.8389 51.5187 62.4943 50.177 63.0543 49.1601C63.2738 48.7546 63.3085 48.2626 63.1062 47.8141L62.796 47.1301C62.456 46.3776 61.5617 46.0371 60.805 46.3765L53.2755 49.7846C52.5189 50.124 52.1845 51.0199 52.5255 51.7773L52.8373 52.461C53.0394 52.9163 53.4477 53.2155 53.9061 53.3103C54.9591 53.5184 55.7707 54.4683 55.4791 55.5013C55.446 55.5934 55.4147 55.6936 55.3689 55.79Z" fill="#DAE7EF"/>
<path fill-rule="evenodd" clip-rule="evenodd" d="M62.7726 49.8645L54.2451 53.7229C53.3015 54.1497 52.1846 53.7289 51.7579 52.784L51.507 52.2268C51.0799 51.2802 51.4995 50.1622 52.4431 49.7354L60.9706 45.877C61.9077 45.4517 63.0276 45.8786 63.453 46.817L63.7118 47.3793C64.1358 48.3197 63.7114 49.4388 62.7726 49.8645Z" fill="white"/>
<path fill-rule="evenodd" clip-rule="evenodd" d="M88.9577 63.9354L93.6093 96.9977C94.1369 100.287 91.9928 103.407 88.743 104.098L52.2521 111.854C49.0023 112.545 45.7759 110.566 44.9185 107.347L36.0057 76.3063C35.8117 75.5772 36.5149 74.9226 37.2299 75.1703L39.1994 75.8468C41.4677 76.6266 43.975 76.0936 45.7235 74.4601L46.1155 74.0911C47.6174 72.6954 49.7558 72.2409 51.689 72.9064L52.7342 73.2693C54.6739 73.9334 56.8123 73.4789 58.3076 72.0846L59.1149 71.328C60.6168 69.9323 62.7552 69.4778 64.6884 70.1433L65.7335 70.5062C67.6733 71.1703 69.8117 70.7158 71.307 69.3215L72.1143 68.5649C73.6161 67.1692 75.7545 66.7146 77.6878 67.3802L78.7329 67.743C80.6726 68.4072 82.811 67.9527 84.3064 66.5584L88.2955 63.6646C88.548 63.4783 88.9044 63.6288 88.9577 63.9354Z" fill="#FFE89D"/>
<g filter="url(#filter1_d_1_221)">
<rect x="215.333" y="2.49454" width="92.5" height="124" rx="13.1483" transform="rotate(12 215.333 2.49454)" fill="#658BFF"/>
</g>
<mask id="mask0_1_221" style="mask-type:luminance" maskUnits="userSpaceOnUse" x="212" y="36" width="75" height="75">
<path fill-rule="evenodd" clip-rule="evenodd" d="M225.837 36.6118L286.766 49.5628L273.876 110.208L212.946 97.2569L225.837 36.6118Z" fill="white"/>
</mask>
<g mask="url(#mask0_1_221)">
<path fill-rule="evenodd" clip-rule="evenodd" d="M225.743 36.4677L212.827 97.2316L273.881 110.209L225.743 36.4677ZM226.413 88.4546L231.229 65.7957L249.18 93.2939L226.413 88.4546Z" fill="#FFD754"/>
</g>
<path fill-rule="evenodd" clip-rule="evenodd" d="M252.915 94.6481L250.534 94.1419C250.018 94.0321 249.688 93.5264 249.797 93.0128C249.906 92.4992 250.413 92.1717 250.93 92.2815L253.311 92.7877C253.827 92.8975 254.157 93.4027 254.048 93.9163C253.939 94.43 253.432 94.7579 252.915 94.6481Z" fill="#3C4B4F"/>
<path fill-rule="evenodd" clip-rule="evenodd" d="M271.592 98.6179L269.349 98.1412C268.833 98.0315 268.503 97.5258 268.612 97.0121C268.721 96.4985 269.228 96.171 269.744 96.2808L271.987 96.7575C272.504 96.8673 272.834 97.3725 272.724 97.8862C272.615 98.3998 272.108 98.7276 271.592 98.6179Z" fill="#3C4B4F"/>
<path fill-rule="evenodd" clip-rule="evenodd" d="M259.081 98.6702L257.374 106.7L254.393 98.9698L259.081 98.6702Z" fill="#566368"/>
<path fill-rule="evenodd" clip-rule="evenodd" d="M262.081 99.3077L260.374 107.338L266.242 101.488L262.081 99.3077Z" fill="#566368"/>
<path fill-rule="evenodd" clip-rule="evenodd" d="M263.642 77.2105L258.817 99.9101L252.1 98.4824L258.332 69.1635L263.642 77.2105Z" fill="#EBEBEB"/>
<path fill-rule="evenodd" clip-rule="evenodd" d="M275.086 71.1522L268.534 101.975L261.817 100.548L266.647 77.822L275.086 71.1522Z" fill="#EBEBEB"/>
<path fill-rule="evenodd" clip-rule="evenodd" d="M258.332 69.1635L263.642 77.2105L263.119 79.6707C260.517 78.7474 258.436 76.9072 257.175 74.607L258.332 69.1635Z" fill="#D6D6D6"/>
<path fill-rule="evenodd" clip-rule="evenodd" d="M270.574 62.997L271.384 59.189L266.763 58.2058L265.953 62.0142L270.574 62.997Z" fill="#D6D6D6"/>
<path fill-rule="evenodd" clip-rule="evenodd" d="M275.086 71.1522L273.643 77.9378C271.565 79.5838 268.901 80.4697 266.123 80.2888L266.647 77.822L275.086 71.1522Z" fill="#D6D6D6"/>
<path fill-rule="evenodd" clip-rule="evenodd" d="M275.086 71.1519C274.118 75.7062 269.623 78.6096 265.047 77.637C260.471 76.6643 257.546 72.1838 258.514 67.6295C259.482 63.0752 263.977 60.1711 268.553 61.1437C273.129 62.1164 276.054 66.5975 275.086 71.1519Z" fill="#FD7D63"/>
<path fill-rule="evenodd" clip-rule="evenodd" d="M270.24 70.1218C269.838 72.0122 267.972 73.218 266.072 72.8142C264.173 72.4104 262.958 70.5499 263.36 68.6594C263.762 66.7684 265.628 65.5632 267.528 65.9669C269.428 66.3708 270.642 68.2308 270.24 70.1218Z" fill="#EBEBEB"/>
<path fill-rule="evenodd" clip-rule="evenodd" d="M273.69 47.9549L269.224 47.0056C267.839 46.7113 266.48 47.59 266.187 48.9679L264.23 58.1729L273.71 60.1879L275.667 50.9829C275.96 49.605 275.075 48.2493 273.69 47.9549Z" fill="#FD7D63"/>
<path fill-rule="evenodd" clip-rule="evenodd" d="M274.861 96.1186L273.957 100.369C273.804 101.09 273.094 101.548 272.371 101.394C271.648 101.241 271.185 100.533 271.338 99.8125L272.241 95.5619C272.394 94.8423 273.105 94.3829 273.828 94.5366C274.19 94.6135 274.486 94.8286 274.673 95.116C274.86 95.4018 274.937 95.7592 274.861 96.1186Z" fill="#3C4B4F"/>
<path fill-rule="evenodd" clip-rule="evenodd" d="M251.184 91.086L250.28 95.3366C250.127 96.057 249.417 96.5156 248.693 96.3618C247.97 96.2081 247.507 95.5002 247.661 94.7798L248.564 90.5292C248.717 89.8096 249.428 89.3502 250.151 89.5039C250.513 89.5808 250.81 89.7961 250.996 90.0833C251.183 90.3691 251.26 90.7266 251.184 91.086Z" fill="#3C4B4F"/>
<path fill-rule="evenodd" clip-rule="evenodd" d="M274.861 96.1186L274.573 97.4727C274.42 98.1931 273.71 98.6518 272.986 98.498C272.263 98.3443 271.8 97.6364 271.953 96.916L272.241 95.5619C272.394 94.8423 273.105 94.3829 273.828 94.5366C274.19 94.6135 274.486 94.8286 274.673 95.116C274.86 95.4018 274.937 95.7592 274.861 96.1186Z" fill="#566368"/>
<path fill-rule="evenodd" clip-rule="evenodd" d="M251.184 91.086L250.896 92.4401C250.743 93.1605 250.033 93.6191 249.309 93.4653C248.586 93.3116 248.123 92.6037 248.276 91.8833L248.564 90.5292C248.717 89.8096 249.428 89.3502 250.151 89.5039C250.513 89.5808 250.81 89.7961 250.996 90.0833C251.183 90.3691 251.26 90.7266 251.184 91.086Z" fill="#566368"/>
<path fill-rule="evenodd" clip-rule="evenodd" d="M267.85 56.9378C267.334 56.8281 267.004 56.3229 267.113 55.8092L268.406 49.7269C268.515 49.2132 269.022 48.8854 269.538 48.9951C270.054 49.1048 270.384 49.6105 270.275 50.1241L268.982 56.2064C268.873 56.7201 268.366 57.0475 267.85 56.9378Z" fill="#FFA07A"/>
<path fill-rule="evenodd" clip-rule="evenodd" d="M270.906 57.5873C270.39 57.4776 270.06 56.9724 270.169 56.4587L271.462 50.3764C271.571 49.8628 272.078 49.5349 272.594 49.6446C273.11 49.7543 273.44 50.26 273.331 50.7736L272.038 56.8559C271.929 57.3696 271.422 57.697 270.906 57.5873Z" fill="#FFA07A"/>
<path fill-rule="evenodd" clip-rule="evenodd" d="M219.838 93.9612L218.87 98.516L217.001 98.1188L217.969 93.564C218.078 93.0494 218.584 92.7227 219.101 92.8326C219.617 92.9423 219.947 93.4466 219.838 93.9612Z" fill="#FF8B5E"/>
<path fill-rule="evenodd" clip-rule="evenodd" d="M227.22 95.5304L226.252 100.085L224.383 99.688L225.352 95.1332C225.461 94.6186 225.967 94.292 226.484 94.4019C227 94.5116 227.33 95.0159 227.22 95.5304Z" fill="#FF8B5E"/>
<path fill-rule="evenodd" clip-rule="evenodd" d="M234.603 97.0996L233.635 101.654L231.766 101.257L232.734 96.7024C232.843 96.1878 233.349 95.8611 233.866 95.971C234.382 96.0807 234.712 96.585 234.603 97.0996Z" fill="#FF8B5E"/>
<path fill-rule="evenodd" clip-rule="evenodd" d="M241.985 98.6688L241.017 103.224L239.148 102.826L240.117 98.2716C240.226 97.757 240.732 97.4303 241.249 97.5402C241.765 97.6499 242.095 98.1542 241.985 98.6688Z" fill="#FF8B5E"/>
<path fill-rule="evenodd" clip-rule="evenodd" d="M249.368 100.238L248.4 104.793L246.531 104.396L247.499 99.8408C247.609 99.3262 248.114 98.9995 248.631 99.1094C249.147 99.2191 249.478 99.7235 249.368 100.238Z" fill="#FF8B5E"/>
<g filter="url(#filter2_d_1_221)">
<rect x="109.432" y="4.25562" width="92.5" height="124" rx="13.1483" fill="#658BFF"/>
</g>
<path fill-rule="evenodd" clip-rule="evenodd" d="M175.804 59.6746H131.373L132.953 50.3731C133.459 47.3994 136.031 45.2238 139.04 45.2238H159.665C165.222 45.2238 170.295 48.395 172.737 53.396L175.804 59.6746Z" fill="#82CCE0"/>
<path fill-rule="evenodd" clip-rule="evenodd" d="M158.647 45.2238L152.19 59.6746H137.641L145.777 45.2238H158.647Z" fill="#6AB1CA"/>
<path fill-rule="evenodd" clip-rule="evenodd" d="M173.968 52.7928C171.315 47.3607 165.701 43.8507 159.665 43.8507H139.041C135.35 43.8507 132.222 46.4966 131.603 50.142L129.793 60.7967L132.493 61.2572L134.303 50.6023C134.698 48.2806 136.69 46.5955 139.04 46.5955H150.068V59.6741H152.808V46.5955H159.665C164.662 46.5955 169.31 49.5017 171.507 53.9993L175.175 61.5098L177.636 60.3035L173.968 52.7928Z" fill="#FD7D63"/>
<path fill-rule="evenodd" clip-rule="evenodd" d="M186.514 80.5488H192.986V66.5022C192.986 64.1943 191.345 62.2142 189.081 61.791L175.804 59.3083H124.792C122.494 59.3083 120.633 61.1737 120.633 63.4735V80.5488H186.514Z" fill="#FD7D63"/>
<path fill-rule="evenodd" clip-rule="evenodd" d="M192.986 66.5022H188.976C187.179 66.5022 185.895 68.2441 186.424 69.9647C186.768 71.0873 187.804 71.8533 188.976 71.8533H192.986" fill="#82CCE0"/>
<path fill-rule="evenodd" clip-rule="evenodd" d="M166.906 63.0017C166.652 63.1744 166.408 63.3567 166.159 63.5347C165.668 63.8961 165.182 64.263 164.701 64.6355L163.984 65.198L163.275 65.7688C163.038 65.9577 162.807 66.1539 162.573 66.3463C162.341 66.5404 162.105 66.731 161.876 66.9289C161.416 67.322 160.953 67.7116 160.501 68.1132L159.82 68.7113L159.147 69.3184C158.881 69.5562 158.618 69.797 158.356 70.0392C158.33 69.8943 158.305 69.7493 158.277 69.6049L158.143 68.8835C158.1 68.6429 158.046 68.4041 157.998 68.1641L157.85 67.4454C157.801 67.2059 157.743 66.9676 157.69 66.7287L157.153 64.3033L154.889 66.7194C154.677 66.9439 154.471 67.1747 154.261 67.4022C153.845 67.86 153.424 68.3124 153.015 68.7771C152.604 69.2401 152.188 69.6984 151.784 70.1683C151.377 70.6355 150.97 71.1021 150.571 71.5772C150.168 72.0481 149.772 72.5258 149.377 73.0048C148.982 73.484 148.591 73.967 148.205 74.4546C147.818 74.9416 147.436 75.4336 147.059 75.9309C146.871 76.1796 146.683 76.4291 146.501 76.6834C146.317 76.9364 146.131 77.1875 145.953 77.4466C146.211 77.2684 146.462 77.0821 146.715 76.8978C146.968 76.7146 147.217 76.5269 147.466 76.3383C147.962 75.9609 148.453 75.5779 148.939 75.1904C149.426 74.8032 149.908 74.4114 150.386 74.016C150.864 73.62 151.341 73.2233 151.811 72.8194C152.285 72.4194 152.75 72.0115 153.217 71.6039C153.686 71.1991 154.143 70.7826 154.605 70.3709C154.909 70.1023 155.208 69.8287 155.506 69.5545L155.591 70.0757C155.667 70.5588 155.754 71.04 155.845 71.5206L155.979 72.242L156.645 75.4792L158.381 73.6745C158.799 73.2395 159.214 72.801 159.622 72.356C160.034 71.9147 160.443 71.4702 160.845 71.0191L161.45 70.3451L162.047 69.6624C162.448 69.2098 162.837 68.7455 163.229 68.2848C163.427 68.0555 163.617 67.8192 163.811 67.5863C164.003 67.3518 164.199 67.121 164.387 66.883L164.957 66.1729L165.518 65.4543C165.89 64.9728 166.256 64.4858 166.617 63.9933C166.794 63.7445 166.976 63.4995 167.149 63.2455C167.322 62.9921 167.5 62.743 167.667 62.4834C167.407 62.65 167.158 62.8279 166.906 63.0017Z" fill="#FFD754"/>
<mask id="mask1_1_221" style="mask-type:luminance" maskUnits="userSpaceOnUse" x="119" y="77" width="76" height="6">
<path fill-rule="evenodd" clip-rule="evenodd" d="M119.441 77.7846H194.432V82.0543H119.441V77.7846Z" fill="white"/>
</mask>
<g mask="url(#mask1_1_221)">
<path fill-rule="evenodd" clip-rule="evenodd" d="M192.301 77.7846H184.083V82.0543H192.301C193.478 82.0543 194.432 81.0986 194.432 79.9194C194.432 78.7404 193.478 77.7846 192.301 77.7846Z" fill="#DF563A"/>
<path fill-rule="evenodd" clip-rule="evenodd" d="M129.781 77.7846H121.563C120.386 77.7846 119.432 78.7404 119.432 79.9194C119.432 81.0983 120.386 82.0543 121.563 82.0543H129.781V77.7846Z" fill="#DF563A"/>
</g>
<path fill-rule="evenodd" clip-rule="evenodd" d="M134.89 72.3472C139.55 72.3472 143.327 76.1322 143.327 80.8014C143.327 85.4705 139.55 89.2556 134.89 89.2556C130.23 89.2556 126.452 85.4705 126.452 80.8014C126.452 76.1322 130.23 72.3472 134.89 72.3472Z" fill="#91928E"/>
<path fill-rule="evenodd" clip-rule="evenodd" d="M178.259 72.3472C182.919 72.3472 186.696 76.1322 186.696 80.8014C186.696 85.4705 182.919 89.2556 178.259 89.2556C173.599 89.2556 169.821 85.4705 169.821 80.8014C169.821 76.1322 173.599 72.3472 178.259 72.3472Z" fill="#91928E"/>
<path fill-rule="evenodd" clip-rule="evenodd" d="M178.258 85.0477C175.922 85.0477 174.02 83.1427 174.02 80.8012C174.02 78.4596 175.922 76.5546 178.258 76.5546C180.595 76.5546 182.496 78.4596 182.496 80.8012C182.496 83.1427 180.595 85.0477 178.258 85.0477Z" fill="#F4F4F1"/>
<path fill-rule="evenodd" clip-rule="evenodd" d="M134.89 85.0477C132.553 85.0477 130.652 83.1427 130.652 80.8012C130.652 78.4596 132.553 76.5546 134.89 76.5546C137.227 76.5546 139.128 78.4596 139.128 80.8012C139.128 83.1427 137.227 85.0477 134.89 85.0477Z" fill="#F4F4F1"/>
<path fill-rule="evenodd" clip-rule="evenodd" d="M178.258 77.2869C176.324 77.2869 174.751 78.8636 174.751 80.8014C174.751 82.7393 176.324 84.3159 178.258 84.3159C180.192 84.3159 181.766 82.7393 181.766 80.8014C181.766 78.8636 180.192 77.2869 178.258 77.2869ZM178.258 85.7797C175.519 85.7797 173.29 83.5462 173.29 80.8013C173.29 78.0562 175.519 75.8227 178.258 75.8227C180.998 75.8227 183.227 78.0562 183.227 80.8013C183.227 83.5462 180.998 85.7797 178.258 85.7797Z" fill="#5F605C"/>
<path fill-rule="evenodd" clip-rule="evenodd" d="M134.89 77.2869C132.956 77.2869 131.383 78.8636 131.383 80.8014C131.383 82.7393 132.956 84.3159 134.89 84.3159C136.824 84.3159 138.398 82.7393 138.398 80.8014C138.398 78.8636 136.824 77.2869 134.89 77.2869ZM134.89 85.7797C132.15 85.7797 129.922 83.5462 129.922 80.8013C129.922 78.0562 132.15 75.8227 134.89 75.8227C137.63 75.8227 139.859 78.0562 139.859 80.8013C139.859 83.5462 137.63 85.7797 134.89 85.7797Z" fill="#5F605C"/>
<defs>
<filter id="filter0_d_1_221" x="0.503326" y="1.50336" width="125.357" height="150.005" filterUnits="userSpaceOnUse" color-interpolation-filters="sRGB">
<feFlood flood-opacity="0" result="BackgroundImageFix"/>
<feColorMatrix in="SourceAlpha" type="matrix" values="0 0 0 0 0 0 0 0 0 0 0 0 0 0 0 0 0 0 127 0" result="hardAlpha"/>
<feOffset dy="4"/>
<feGaussianBlur stdDeviation="3.5"/>
<feColorMatrix type="matrix" values="0 0 0 0 0 0 0 0 0 0.0856122 0 0 0 0 0.381962 0 0 0 0.2 0"/>
<feBlend mode="normal" in2="BackgroundImageFix" result="effect1_dropShadow_1_221"/>
<feBlend mode="normal" in="SourceGraphic" in2="effect1_dropShadow_1_221" result="shape"/>
</filter>
<filter id="filter1_d_1_221" x="184.996" y="0.938202" width="125.372" height="149.635" filterUnits="userSpaceOnUse" color-interpolation-filters="sRGB">
<feFlood flood-opacity="0" result="BackgroundImageFix"/>
<feColorMatrix in="SourceAlpha" type="matrix" values="0 0 0 0 0 0 0 0 0 0 0 0 0 0 0 0 0 0 127 0" result="hardAlpha"/>
<feOffset dy="3"/>
<feGaussianBlur stdDeviation="3.5"/>
<feColorMatrix type="matrix" values="0 0 0 0 0 0 0 0 0 0.0856122 0 0 0 0 0.381962 0 0 0 0.2 0"/>
<feBlend mode="normal" in2="BackgroundImageFix" result="effect1_dropShadow_1_221"/>
<feBlend mode="normal" in="SourceGraphic" in2="effect1_dropShadow_1_221" result="shape"/>
</filter>
<filter id="filter2_d_1_221" x="102.432" y="0.255615" width="106.5" height="138" filterUnits="userSpaceOnUse" color-interpolation-filters="sRGB">
<feFlood flood-opacity="0" result="BackgroundImageFix"/>
<feColorMatrix in="SourceAlpha" type="matrix" values="0 0 0 0 0 0 0 0 0 0 0 0 0 0 0 0 0 0 127 0" result="hardAlpha"/>
<feOffset dy="3"/>
<feGaussianBlur stdDeviation="3.5"/>
<feColorMatrix type="matrix" values="0 0 0 0 0 0 0 0 0 0.0856122 0 0 0 0 0.381962 0 0 0 0.2 0"/>
<feBlend mode="normal" in2="BackgroundImageFix" result="effect1_dropShadow_1_221"/>
<feBlend mode="normal" in="SourceGraphic" in2="effect1_dropShadow_1_221" result="shape"/>
</filter>
</defs>
</svg>
