<svg width="167" height="49" viewBox="0 0 167 49" fill="none" xmlns="http://www.w3.org/2000/svg">
    <rect y="0.0495605" width="167" height="48" rx="8" fill="#181818" />
    <path d="M36.6604 23.7796C36.6241 19.7508 39.9591 17.7908 40.1116 17.6996C38.2229 14.9458 35.2954 14.5696 34.2666 14.5396C31.8079 14.2808 29.4229 16.0108 28.1704 16.0108C26.8929 16.0108 24.9641 14.5646 22.8854 14.6071C20.2104 14.6483 17.7079 16.1971 16.3354 18.6021C13.5029 23.5058 15.6154 30.7121 18.3291 34.6758C19.6866 36.6171 21.2729 38.7846 23.3491 38.7083C25.3804 38.6246 26.1391 37.4133 28.5904 37.4133C31.0191 37.4133 31.7316 38.7083 33.8491 38.6596C36.0291 38.6246 37.4016 36.7096 38.7116 34.7508C40.2804 32.5258 40.9104 30.3346 40.9354 30.2221C40.8841 30.2046 36.7016 28.6083 36.6604 23.7796Z" fill="white" />
    <path d="M32.6608 11.9321C33.7533 10.5658 34.5008 8.70705 34.2933 6.8208C32.712 6.8908 30.7345 7.91455 29.5958 9.2508C28.5883 10.4283 27.6883 12.3583 27.9208 14.1733C29.697 14.3058 31.5208 13.2771 32.6608 11.9321Z" fill="white" />
    <path d="M66.0564 38.4296H63.2177L61.6627 33.5433H56.2577L54.7764 38.4296H52.0127L57.3677 21.7946H60.6752L66.0564 38.4296ZM61.1939 31.4933L59.7877 27.1496C59.6389 26.7058 59.3602 25.6608 58.9489 24.0158H58.8989C58.7352 24.7233 58.4714 25.7683 58.1089 27.1496L56.7277 31.4933H61.1939Z" fill="white" />
    <path d="M79.8276 32.2845C79.8276 34.3245 79.2764 35.937 78.1739 37.1208C77.1864 38.1745 75.9601 38.7008 74.4964 38.7008C72.9164 38.7008 71.7814 38.1333 71.0901 36.9983H71.0401V43.317H68.3751V30.3833C68.3751 29.1008 68.3414 27.7845 68.2764 26.4345H70.6201L70.7689 28.3358H70.8189C71.7076 26.9033 73.0564 26.1883 74.8664 26.1883C76.2814 26.1883 77.4626 26.747 78.4076 27.8658C79.3551 28.9858 79.8276 30.4583 79.8276 32.2845ZM77.1126 32.382C77.1126 31.2145 76.8501 30.252 76.3226 29.4945C75.7464 28.7045 74.9726 28.3095 74.0026 28.3095C73.3451 28.3095 72.7476 28.5295 72.2139 28.9633C71.6789 29.4008 71.3289 29.972 71.1651 30.6795C71.0826 31.0095 71.0414 31.2795 71.0414 31.492V33.492C71.0414 34.3645 71.3089 35.1008 71.8439 35.702C72.3789 36.3033 73.0739 36.6033 73.9289 36.6033C74.9326 36.6033 75.7139 36.2158 76.2726 35.4433C76.8326 34.6695 77.1126 33.6495 77.1126 32.382Z" fill="white" />
    <path d="M93.6242 32.2845C93.6242 34.3245 93.073 35.937 91.9692 37.1208C90.983 38.1745 89.7567 38.7008 88.293 38.7008C86.713 38.7008 85.578 38.1333 84.888 36.9983H84.838V43.317H82.173V30.3833C82.173 29.1008 82.1392 27.7845 82.0742 26.4345H84.418L84.5667 28.3358H84.6167C85.5042 26.9033 86.853 26.1883 88.6642 26.1883C90.078 26.1883 91.2592 26.747 92.2067 27.8658C93.1505 28.9858 93.6242 30.4583 93.6242 32.2845ZM90.9092 32.382C90.9092 31.2145 90.6455 30.252 90.118 29.4945C89.5417 28.7045 88.7705 28.3095 87.7992 28.3095C87.1405 28.3095 86.5442 28.5295 86.0092 28.9633C85.4742 29.4008 85.1255 29.972 84.9617 30.6795C84.8805 31.0095 84.838 31.2795 84.838 31.492V33.492C84.838 34.3645 85.1055 35.1008 85.638 35.702C86.173 36.302 86.868 36.6033 87.7255 36.6033C88.7292 36.6033 89.5105 36.2158 90.0692 35.4433C90.6292 34.6695 90.9092 33.6495 90.9092 32.382Z" fill="white" />
    <path d="M109.049 33.7645C109.049 35.1795 108.557 36.3308 107.571 37.2195C106.487 38.1908 104.979 38.6758 103.04 38.6758C101.25 38.6758 99.8148 38.3308 98.7285 37.6395L99.346 35.4183C100.516 36.1258 101.8 36.4808 103.199 36.4808C104.202 36.4808 104.984 36.2533 105.545 35.8008C106.104 35.3483 106.382 34.7408 106.382 33.9833C106.382 33.3083 106.152 32.7395 105.691 32.2783C105.232 31.817 104.466 31.3883 103.396 30.992C100.484 29.9058 99.0285 28.3145 99.0285 26.222C99.0285 24.8545 99.5385 23.7333 100.56 22.8608C101.577 21.987 102.935 21.5508 104.632 21.5508C106.146 21.5508 107.404 21.8145 108.407 22.3408L107.741 24.5133C106.804 24.0033 105.744 23.7483 104.557 23.7483C103.62 23.7483 102.887 23.9795 102.362 24.4395C101.919 24.8508 101.696 25.352 101.696 25.9458C101.696 26.6033 101.95 27.147 102.46 27.5745C102.904 27.9695 103.71 28.397 104.88 28.8583C106.311 29.4345 107.362 30.1083 108.039 30.8808C108.712 31.6508 109.049 32.6145 109.049 33.7645Z" fill="white" />
    <path d="M117.86 28.4346H114.922V34.2583C114.922 35.7396 115.44 36.4796 116.477 36.4796C116.953 36.4796 117.348 36.4383 117.661 36.3558L117.735 38.3796C117.21 38.5758 116.518 38.6746 115.662 38.6746C114.61 38.6746 113.787 38.3533 113.193 37.7121C112.602 37.0696 112.305 35.9921 112.305 34.4783V28.4321H110.555V26.4321H112.305V24.2358L114.922 23.4458V26.4321H117.86V28.4346Z" fill="white" />
    <path d="M131.114 32.3333C131.114 34.177 130.586 35.6908 129.534 36.8745C128.43 38.0933 126.965 38.7008 125.139 38.7008C123.379 38.7008 121.978 38.117 120.933 36.9495C119.888 35.782 119.365 34.3083 119.365 32.532C119.365 30.6733 119.903 29.1508 120.981 27.967C122.058 26.782 123.51 26.1895 125.336 26.1895C127.096 26.1895 128.513 26.7733 129.581 27.942C130.604 29.0758 131.114 30.5395 131.114 32.3333ZM128.349 32.4195C128.349 31.3133 128.113 30.3645 127.634 29.5733C127.075 28.6158 126.276 28.1383 125.241 28.1383C124.17 28.1383 123.356 28.617 122.798 29.5733C122.319 30.3658 122.083 31.3295 122.083 32.4695C122.083 33.5758 122.319 34.5245 122.798 35.3145C123.374 36.272 124.179 36.7495 125.218 36.7495C126.235 36.7495 127.034 36.262 127.61 35.2895C128.101 34.4833 128.349 33.5245 128.349 32.4195Z" fill="white" />
    <path d="M139.776 28.7783C139.512 28.7295 139.231 28.7045 138.936 28.7045C137.998 28.7045 137.273 29.0583 136.763 29.767C136.32 30.392 136.097 31.182 136.097 32.1358V38.4295H133.433L133.458 30.212C133.458 28.8295 133.425 27.5708 133.358 26.4358H135.68L135.777 28.7308H135.851C136.132 27.942 136.576 27.307 137.183 26.8308C137.777 26.402 138.418 26.1883 139.11 26.1883C139.356 26.1883 139.578 26.2058 139.776 26.237V28.7783Z" fill="white" />
    <path d="M151.695 31.8645C151.695 32.342 151.664 32.7445 151.598 33.0733H143.603C143.634 34.2583 144.02 35.1645 144.763 35.7895C145.436 36.3483 146.308 36.6283 147.378 36.6283C148.561 36.6283 149.641 36.4395 150.613 36.0608L151.03 37.9108C149.895 38.4058 148.555 38.652 147.009 38.652C145.149 38.652 143.689 38.1045 142.626 37.0108C141.566 35.917 141.035 34.4483 141.035 32.6058C141.035 30.797 141.529 29.2908 142.518 28.0895C143.553 26.807 144.951 26.1658 146.711 26.1658C148.44 26.1658 149.749 26.807 150.638 28.0895C151.341 29.1083 151.695 30.3683 151.695 31.8645ZM149.154 31.1733C149.171 30.3833 148.998 29.7008 148.636 29.1245C148.175 28.3833 147.466 28.0133 146.513 28.0133C145.641 28.0133 144.933 28.3745 144.391 29.0995C143.948 29.6758 143.684 30.367 143.603 31.172L149.154 31.1733Z" fill="white" />
    <path d="M60.3122 11.5608C60.3122 13.0321 59.871 14.1396 58.9897 14.8833C58.1735 15.5696 57.0135 15.9133 55.511 15.9133C54.766 15.9133 54.1285 15.8808 53.5947 15.8158V7.77706C54.291 7.66456 55.041 7.60706 55.851 7.60706C57.2822 7.60706 58.361 7.91831 59.0885 8.54081C59.9035 9.24456 60.3122 10.2508 60.3122 11.5608ZM58.931 11.5971C58.931 10.6433 58.6785 9.91206 58.1735 9.40205C57.6685 8.8933 56.931 8.63831 55.9597 8.63831C55.5472 8.63831 55.196 8.66581 54.9047 8.72331V14.8346C55.066 14.8596 55.361 14.8708 55.7897 14.8708C56.7922 14.8708 57.566 14.5921 58.111 14.0346C58.656 13.4771 58.931 12.6646 58.931 11.5971Z" fill="white" />
    <path d="M67.6355 12.8458C67.6355 13.7521 67.3768 14.4946 66.8593 15.0771C66.3168 15.6758 65.598 15.9746 64.7005 15.9746C63.8355 15.9746 63.1468 15.6883 62.633 15.1133C62.1205 14.5396 61.8643 13.8158 61.8643 12.9433C61.8643 12.0308 62.128 11.2821 62.658 10.7008C63.188 10.1196 63.9005 9.82831 64.798 9.82831C65.663 9.82831 66.358 10.1146 66.8843 10.6883C67.3843 11.2458 67.6355 11.9658 67.6355 12.8458ZM66.2768 12.8883C66.2768 12.3446 66.1593 11.8783 65.9255 11.4896C65.6505 11.0196 65.2593 10.7846 64.7505 10.7846C64.2243 10.7846 63.8243 11.0196 63.5493 11.4896C63.3143 11.8783 63.198 12.3521 63.198 12.9121C63.198 13.4558 63.3155 13.9221 63.5493 14.3108C63.833 14.7808 64.228 15.0158 64.738 15.0158C65.238 15.0158 65.6305 14.7771 65.913 14.2983C66.1555 13.9021 66.2768 13.4321 66.2768 12.8883Z" fill="white" />
    <path d="M77.4564 9.9483L75.6127 15.8408H74.4127L73.6489 13.2821C73.4552 12.6433 73.2977 12.0083 73.1752 11.3783H73.1514C73.0377 12.0258 72.8802 12.6596 72.6777 13.2821L71.8664 15.8408H70.6527L68.9189 9.9483H70.2652L70.9314 12.7496C71.0927 13.4121 71.2252 14.0433 71.3314 14.6408H71.3552C71.4527 14.1483 71.6139 13.5208 71.8414 12.7621L72.6777 9.94955H73.7452L74.5464 12.7021C74.7402 13.3733 74.8977 14.0196 75.0189 14.6421H75.0552C75.1439 14.0358 75.2777 13.3896 75.4552 12.7021L76.1702 9.94955H77.4564V9.9483Z" fill="white" />
    <path d="M84.247 15.8408H82.937V12.4658C82.937 11.4258 82.542 10.9058 81.7495 10.9058C81.3608 10.9058 81.047 11.0483 80.8033 11.3346C80.562 11.6208 80.4395 11.9583 80.4395 12.3446V15.8396H79.1295V11.6321C79.1295 11.1146 79.1133 10.5533 79.082 9.94584H80.2333L80.2945 10.8671H80.3308C80.4833 10.5808 80.7108 10.3446 81.0095 10.1558C81.3645 9.93584 81.762 9.82458 82.197 9.82458C82.747 9.82458 83.2045 10.0021 83.5683 10.3583C84.0208 10.7946 84.247 11.4458 84.247 12.3108V15.8408Z" fill="white" />
    <path d="M87.8595 15.8408H86.5508V7.24457H87.8595V15.8408Z" fill="white" />
    <path d="M95.572 12.8458C95.572 13.7521 95.3133 14.4946 94.7958 15.0771C94.2533 15.6758 93.5333 15.9746 92.637 15.9746C91.7708 15.9746 91.082 15.6883 90.5695 15.1133C90.057 14.5396 89.8008 13.8158 89.8008 12.9433C89.8008 12.0308 90.0645 11.2821 90.5945 10.7008C91.1245 10.1196 91.837 9.82831 92.7333 9.82831C93.5995 9.82831 94.2933 10.1146 94.8208 10.6883C95.3208 11.2458 95.572 11.9658 95.572 12.8458ZM94.212 12.8883C94.212 12.3446 94.0945 11.8783 93.8608 11.4896C93.587 11.0196 93.1945 10.7846 92.687 10.7846C92.1595 10.7846 91.7595 11.0196 91.4858 11.4896C91.2508 11.8783 91.1345 12.3521 91.1345 12.9121C91.1345 13.4558 91.252 13.9221 91.4858 14.3108C91.7695 14.7808 92.1645 15.0158 92.6745 15.0158C93.1745 15.0158 93.5658 14.7771 93.8483 14.2983C94.092 13.9021 94.212 13.4321 94.212 12.8883Z" fill="white" />
    <path d="M101.913 15.8408H100.736L100.639 15.1621H100.603C100.2 15.7033 99.6264 15.9746 98.8814 15.9746C98.3252 15.9746 97.8752 15.7958 97.5364 15.4408C97.2289 15.1183 97.0752 14.7171 97.0752 14.2408C97.0752 13.5208 97.3752 12.9721 97.9789 12.5921C98.5814 12.2121 99.429 12.0258 100.52 12.0346V11.9246C100.52 11.1483 100.113 10.7608 99.2964 10.7608C98.7152 10.7608 98.2027 10.9071 97.7602 11.1971L97.4939 10.3371C98.0414 9.99831 98.7177 9.82831 99.5152 9.82831C101.055 9.82831 101.828 10.6408 101.828 12.2658V14.4358C101.828 15.0246 101.856 15.4933 101.913 15.8408ZM100.553 13.8158V12.9071C99.1077 12.8821 98.3852 13.2783 98.3852 14.0946C98.3852 14.4021 98.4677 14.6321 98.6364 14.7858C98.8052 14.9396 99.0202 15.0158 99.2764 15.0158C99.5639 15.0158 99.8327 14.9246 100.078 14.7433C100.324 14.5608 100.475 14.3296 100.531 14.0458C100.545 13.9821 100.553 13.9046 100.553 13.8158Z" fill="white" />
    <path d="M109.356 15.8408H108.194L108.133 14.8946H108.096C107.725 15.6146 107.093 15.9746 106.204 15.9746C105.494 15.9746 104.903 15.6958 104.434 15.1383C103.965 14.5808 103.731 13.8571 103.731 12.9683C103.731 12.0146 103.985 11.2421 104.495 10.6521C104.989 10.1021 105.594 9.82707 106.314 9.82707C107.105 9.82707 107.659 10.0933 107.974 10.6271H107.999V7.24457H109.31V14.2533C109.31 14.8271 109.325 15.3558 109.356 15.8408ZM107.999 13.3558V12.3733C107.999 12.2033 107.986 12.0658 107.963 11.9608C107.889 11.6458 107.73 11.3808 107.489 11.1671C107.245 10.9533 106.951 10.8458 106.613 10.8458C106.124 10.8458 105.741 11.0396 105.46 11.4283C105.181 11.8171 105.04 12.3133 105.04 12.9196C105.04 13.5021 105.174 13.9746 105.443 14.3383C105.726 14.7258 106.109 14.9196 106.588 14.9196C107.018 14.9196 107.361 14.7583 107.623 14.4346C107.875 14.1358 107.999 13.7758 107.999 13.3558Z" fill="white" />
    <path d="M120.559 12.8458C120.559 13.7521 120.301 14.4946 119.783 15.0771C119.241 15.6758 118.523 15.9746 117.624 15.9746C116.761 15.9746 116.072 15.6883 115.557 15.1133C115.044 14.5396 114.788 13.8158 114.788 12.9433C114.788 12.0308 115.052 11.2821 115.582 10.7008C116.112 10.1196 116.824 9.82831 117.723 9.82831C118.587 9.82831 119.283 10.1146 119.808 10.6883C120.308 11.2458 120.559 11.9658 120.559 12.8458ZM119.202 12.8883C119.202 12.3446 119.084 11.8783 118.851 11.4896C118.574 11.0196 118.184 10.7846 117.674 10.7846C117.149 10.7846 116.749 11.0196 116.473 11.4896C116.238 11.8783 116.122 12.3521 116.122 12.9121C116.122 13.4558 116.239 13.9221 116.473 14.3108C116.757 14.7808 117.152 15.0158 117.662 15.0158C118.162 15.0158 118.556 14.7771 118.838 14.2983C119.079 13.9021 119.202 13.4321 119.202 12.8883Z" fill="white" />
    <path d="M127.603 15.8408H126.294V12.4658C126.294 11.4258 125.899 10.9058 125.106 10.9058C124.717 10.9058 124.403 11.0483 124.161 11.3346C123.918 11.6208 123.797 11.9583 123.797 12.3446V15.8396H122.486V11.6321C122.486 11.1146 122.471 10.5533 122.439 9.94584H123.589L123.651 10.8671H123.687C123.841 10.5808 124.068 10.3446 124.366 10.1558C124.722 9.93584 125.118 9.82458 125.554 9.82458C126.103 9.82458 126.561 10.0021 126.924 10.3583C127.378 10.7946 127.603 11.4458 127.603 12.3108V15.8408Z" fill="white" />
    <path d="M136.42 10.9296H134.977V13.7921C134.977 14.5196 135.234 14.8833 135.741 14.8833C135.976 14.8833 136.171 14.8633 136.325 14.8221L136.359 15.8158C136.1 15.9133 135.76 15.9621 135.341 15.9621C134.824 15.9621 134.421 15.8046 134.13 15.4896C133.837 15.1746 133.692 14.6446 133.692 13.9008V10.9296H132.831V9.94833H133.692V8.86833L134.976 8.48083V9.94709H136.419L136.42 10.9296Z" fill="white" />
    <path d="M143.355 15.8408H142.044V12.4908C142.044 11.4346 141.649 10.9058 140.857 10.9058C140.25 10.9058 139.835 11.2121 139.607 11.8246C139.569 11.9533 139.546 12.1108 139.546 12.2958V15.8396H138.237V7.24457H139.546V10.7958H139.571C139.984 10.1496 140.575 9.82707 141.341 9.82707C141.884 9.82707 142.332 10.0046 142.689 10.3608C143.132 10.8046 143.355 11.4646 143.355 12.3371V15.8408Z" fill="white" />
    <path d="M150.508 12.6158C150.508 12.8508 150.491 13.0483 150.46 13.2096H146.531C146.548 13.7921 146.736 14.2358 147.1 14.5433C147.432 14.8183 147.861 14.9558 148.386 14.9558C148.967 14.9558 149.497 14.8633 149.975 14.6771L150.18 15.5871C149.621 15.8296 148.963 15.9508 148.202 15.9508C147.29 15.9508 146.571 15.6821 146.051 15.1446C145.528 14.6071 145.27 13.8858 145.27 12.9808C145.27 12.0921 145.511 11.3521 145.997 10.7621C146.505 10.1321 147.191 9.81708 148.057 9.81708C148.905 9.81708 149.548 10.1321 149.983 10.7621C150.335 11.2621 150.508 11.8808 150.508 12.6158ZM149.258 12.2771C149.268 11.8883 149.182 11.5533 149.005 11.2708C148.777 10.9071 148.431 10.7246 147.962 10.7246C147.535 10.7246 147.186 10.9021 146.92 11.2583C146.702 11.5421 146.573 11.8808 146.531 12.2771H149.258Z" fill="white" />
</svg>