<svg width="210" height="152" viewBox="0 0 210 152" fill="none" xmlns="http://www.w3.org/2000/svg">
<g filter="url(#filter0_d_1_79)">
<rect x="24.5" y="33.5" width="178" height="85" rx="42.5" fill="#658BFF"/>
</g>
<path fill-rule="evenodd" clip-rule="evenodd" d="M96.1632 55.1509V96.1434H82.9728V80.1506H67.1328V96.1434H54V55.1509H67.1328V70.7396H82.9728V55.1509H96.1632ZM112.272 86.9634H134.506V96.1434H99.1392V55.1509H131.837L134.102 58.9574V64.3309H112.272V70.9706H133.123V79.6887H112.272V86.9634ZM134.102 55.1509V58.9574L148.022 82.3445V96.1434H161.213V82.3445L177.341 55.1509H163.574L155.914 69.5272C155.222 70.6819 154.934 71.6057 154.762 72.4717H154.646C154.474 71.6057 154.186 70.6819 153.494 69.5272L146.006 55.1509H134.102Z" fill="white"/>
<path d="M10.0636 44.0636L8.34317 48.4259C8.15952 48.8916 7.63313 49.1202 7.16746 48.9366C6.93386 48.8444 6.74895 48.6595 6.65683 48.4259L4.93637 44.0636L0.574081 42.3432C0.108409 42.1595 -0.120209 41.6331 0.0634498 41.1675C0.155578 40.9339 0.340486 40.749 0.574081 40.6568L4.93637 38.9364L6.65683 34.5741C6.84048 34.1084 7.36687 33.8798 7.83254 34.0634C8.06614 34.1556 8.25105 34.3405 8.34317 34.5741L10.0636 38.9364L14.4259 40.6568C14.8916 40.8405 15.1202 41.3669 14.9366 41.8325C14.8444 42.0661 14.6595 42.251 14.4259 42.3432L10.0636 44.0636Z" fill="white"/>
<path d="M141.564 147.064L139.843 151.426C139.66 151.892 139.133 152.12 138.667 151.937C138.434 151.844 138.249 151.66 138.157 151.426L136.436 147.064L132.074 145.343C131.608 145.16 131.38 144.633 131.563 144.167C131.656 143.934 131.84 143.749 132.074 143.657L136.436 141.936L138.157 137.574C138.34 137.108 138.867 136.88 139.333 137.063C139.566 137.156 139.751 137.34 139.843 137.574L141.564 141.936L145.926 143.657C146.392 143.84 146.62 144.367 146.437 144.833C146.344 145.066 146.16 145.251 145.926 145.343L141.564 147.064Z" fill="white"/>
<path d="M199.564 10.0636L197.843 14.4259C197.66 14.8916 197.133 15.1202 196.667 14.9366C196.434 14.8444 196.249 14.6595 196.157 14.4259L194.436 10.0636L190.074 8.34317C189.608 8.15952 189.38 7.63313 189.563 7.16746C189.656 6.93386 189.84 6.74895 190.074 6.65683L194.436 4.93637L196.157 0.574081C196.34 0.108409 196.867 -0.120209 197.333 0.0634498C197.566 0.155578 197.751 0.340486 197.843 0.574081L199.564 4.93637L203.926 6.65683C204.392 6.84048 204.62 7.36687 204.437 7.83254C204.344 8.06614 204.16 8.25105 203.926 8.34317L199.564 10.0636Z" fill="white"/>
<defs>
<filter id="filter0_d_1_79" x="17.5" y="30.5" width="192" height="99" filterUnits="userSpaceOnUse" color-interpolation-filters="sRGB">
<feFlood flood-opacity="0" result="BackgroundImageFix"/>
<feColorMatrix in="SourceAlpha" type="matrix" values="0 0 0 0 0 0 0 0 0 0 0 0 0 0 0 0 0 0 127 0" result="hardAlpha"/>
<feOffset dy="4"/>
<feGaussianBlur stdDeviation="3.5"/>
<feColorMatrix type="matrix" values="0 0 0 0 0 0 0 0 0 0.0856122 0 0 0 0 0.381962 0 0 0 0.2 0"/>
<feBlend mode="normal" in2="BackgroundImageFix" result="effect1_dropShadow_1_79"/>
<feBlend mode="normal" in="SourceGraphic" in2="effect1_dropShadow_1_79" result="shape"/>
</filter>
</defs>
</svg>
