<svg width="138" height="139" viewBox="0 0 138 139" fill="none" xmlns="http://www.w3.org/2000/svg">
<g id="Group 3">
<g id="Group 5">
<g id="Group 6">
<g id="Mask" filter="url(#filter0_d_22_1901)">
<rect x="9" y="6" width="120" height="120" rx="52.4333" fill="#658BFF"/>
</g>
<mask id="mask0_22_1901" style="mask-type:luminance" maskUnits="userSpaceOnUse" x="9" y="6" width="120" height="120">
<rect id="Mask_2" x="9" y="6" width="120" height="120" rx="52.4333" fill="white"/>
</mask>
<g mask="url(#mask0_22_1901)">
<g id="Group 4">
<path id="Fill 1" fill-rule="evenodd" clip-rule="evenodd" d="M82.6408 116.188C82.7514 115.241 82.8043 114.439 82.7867 113.814C82.595 107.032 79.7151 98.7021 76.9423 94.1764C74.1693 89.6507 62.7992 86.2967 54.8183 81.3719C46.8371 76.4473 37.7635 77.1963 33.889 79.6693C30.015 82.1427 16.6536 88.8033 12.0288 92.6312C7.40395 96.4591 5.27716 100.022 1.90601 113.735C1.90601 113.735 2.1827 114.633 2.64403 116.188C2.64403 116.188 28.3178 137.271 41.8176 137.271C54.9833 137.271 82.6408 116.188 82.6408 116.188Z" fill="white"/>
<path id="Fill 4" fill-rule="evenodd" clip-rule="evenodd" d="M32.4639 82.0125C32.4639 82.0125 33.3946 64.5644 33.3549 54.2312C33.3143 43.7018 41.5354 39.5711 49.1488 40.5432C56.7624 41.515 61.1359 48.6424 59.3541 59.3339C57.5724 70.0253 53.3606 72.779 53.3606 72.779L54.0085 82.9843C54.0085 82.9843 51.4168 86.8722 42.6692 86.5483C33.9218 86.2241 32.4639 82.0125 32.4639 82.0125Z" fill="#FFA07A"/>
<path id="Combined Shape" fill-rule="evenodd" clip-rule="evenodd" d="M33.3549 54.2312C33.3946 64.5644 32.4639 82.0125 32.4639 82.0125C32.4639 82.0125 32.8284 83.0654 34.2863 84.1588C32.8285 83.0654 32.464 82.0126 32.464 82.0126C32.464 82.0126 33.1699 69.7388 33.436 62.4116C33.5306 62.6763 33.6339 62.9819 33.7482 63.3197C34.6127 65.8756 36.1009 70.2751 39.1056 72.7791C41.1923 74.5182 44.8967 75.6685 47.61 75.533C50.8374 75.3716 53.3416 72.7988 53.3606 72.7792L53.3606 72.779C53.3606 72.779 57.5724 70.0253 59.3541 59.3339C61.1359 48.6424 56.7624 41.515 49.1488 40.5432C41.5354 39.5711 33.3143 43.7018 33.3549 54.2312Z" fill="#FFB99C"/>
<path id="Fill 9" fill-rule="evenodd" clip-rule="evenodd" d="M44.9372 56.985C44.9372 57.3876 44.6107 57.7141 44.2081 57.7141C43.8057 57.7141 43.4792 57.3876 43.4792 56.985C43.4792 56.5824 43.8057 56.2562 44.2081 56.2562C44.6107 56.2562 44.9372 56.5824 44.9372 56.985Z" fill="black"/>
<path id="Fill 11" fill-rule="evenodd" clip-rule="evenodd" d="M57.5724 58.362C57.5724 58.7646 57.2459 59.0911 56.8434 59.0911C56.441 59.0911 56.1145 58.7646 56.1145 58.362C56.1145 57.9594 56.441 57.6329 56.8434 57.6329C57.2459 57.6329 57.5724 57.9594 57.5724 58.362Z" fill="black"/>
<path id="Fill 13" fill-rule="evenodd" clip-rule="evenodd" d="M50.704 55.9923L53.4899 62.9571C53.8194 63.7806 53.1695 64.6642 52.2849 64.5949L48.2532 64.2786L50.704 55.9923Z" fill="#FF8B5E"/>
<path id="Fill 15" fill-rule="evenodd" clip-rule="evenodd" d="M36.9185 59.01C36.9185 59.01 36.9185 54.9601 37.1615 53.5024C38.1335 52.8543 41.8592 51.2344 42.7502 46.5367C42.7502 46.5367 55.4665 50.0194 61.136 46.1317C66.8056 42.2441 59.5161 38.7611 56.1953 41.1911C56.1953 41.1911 57.6533 37.8703 54.8184 36.8173C51.9835 35.7645 49.4728 39.4902 49.4728 39.4902C49.4728 39.4902 46.152 37.8703 42.7502 38.9233C39.3485 39.9761 36.5136 42.568 34.8127 46.6986C33.1118 50.8295 33.1118 56.1751 33.1118 56.1751L36.9185 59.01Z" fill="#46342D"/>
<path id="Fill 17" fill-rule="evenodd" clip-rule="evenodd" d="M35.2583 56.0536C35.2583 56.0536 32.3425 54.9198 31.6946 58.8884C31.0465 62.8571 34.7724 62.7761 34.7724 62.7761L35.2583 56.0536Z" fill="#FF8B5E"/>
<path id="Fill 19" fill-rule="evenodd" clip-rule="evenodd" d="M48.4212 67.0432C48.144 67.8939 46.8849 68.2462 45.6089 67.8301C44.3331 67.414 43.5237 66.3872 43.801 65.5366C44.0783 64.6861 44.7582 65.8489 46.0342 66.265C47.31 66.6808 48.6985 66.1926 48.4212 67.0432Z" fill="white"/>
<path id="Fill 21" fill-rule="evenodd" clip-rule="evenodd" d="M43.7205 61.3491C43.7205 62.6486 42.667 63.7021 41.3676 63.7021C40.0681 63.7021 39.0146 62.6486 39.0146 61.3491C39.0146 60.0497 40.0681 58.9962 41.3676 58.9962C42.667 58.9962 43.7205 60.0497 43.7205 61.3491Z" fill="#FF8B5E"/>
<path id="Fill 23" fill-rule="evenodd" clip-rule="evenodd" d="M57.5812 61.2635C56.2818 61.2635 55.2283 62.317 55.2283 63.6165C55.2283 64.9159 56.2818 65.9694 57.5812 65.9694C57.6081 65.9694 57.6332 65.9624 57.6596 65.9615C58.1079 64.7407 58.5319 63.3151 58.8992 61.6673C58.5233 61.4125 58.0697 61.2635 57.5812 61.2635Z" fill="#FF8B5E"/>
</g>
<g id="Group 2">
<path id="Fill 1_2" fill-rule="evenodd" clip-rule="evenodd" d="M63.4315 128.64H111.957C112.128 125.728 112.283 123.624 112.283 123.624L125.76 116.686C126.615 105.958 119.77 99.4877 112.925 96.5929C106.08 93.6984 100.947 87.5684 100.947 87.5684L80.2406 88.2493C79.556 91.655 68.775 95.7419 61.0746 101.02C53.374 106.299 53.374 117.197 53.374 117.197L64.6535 122.223L63.4315 128.64Z" fill="#FFD754"/>
<path id="Fill 4_2" fill-rule="evenodd" clip-rule="evenodd" d="M100.433 45.2151C103.428 47.6964 105.224 50.9478 105.823 54.7127C106.422 58.4772 105.224 63.6965 105.224 63.6965L94.1013 49.1511L100.433 45.2151Z" fill="#46342D"/>
<path id="Fill 6" fill-rule="evenodd" clip-rule="evenodd" d="M107.278 62.6898C107.278 64.5436 106.148 66.0466 104.754 66.0466C103.36 66.0466 102.23 64.5436 102.23 62.6898C102.23 60.8358 103.36 59.3329 104.754 59.3329C106.148 59.3329 107.278 60.8358 107.278 62.6898Z" fill="#FF8B5E"/>
<path id="Fill 8" fill-rule="evenodd" clip-rule="evenodd" d="M100.091 72.1672C99.7485 80.8946 100.946 87.5684 100.946 87.5684C100.946 87.5684 98.5506 89.4508 92.2191 89.2797C85.8875 89.1085 82.8074 88.5952 82.8074 88.5952C82.8074 88.5952 84.0052 76.9587 83.8339 72.6807L100.091 72.1672Z" fill="#FFA07A"/>
<path id="Fill 13_2" fill-rule="evenodd" clip-rule="evenodd" d="M104.711 62.242C104.711 71.7403 98.2086 79.1834 91.9627 79.0121C85.7168 78.8411 78.7004 71.2268 78.7004 61.7285C78.7004 52.2303 82.9786 44.4452 91.9627 44.6162C101.643 44.8007 104.711 52.7438 104.711 62.242Z" fill="#FFB99C"/>
<path id="Fill 15_2" fill-rule="evenodd" clip-rule="evenodd" d="M86.6577 60.5307C86.6577 60.9927 86.3129 61.3672 85.8878 61.3672C85.4625 61.3672 85.1174 60.9927 85.1174 60.5307C85.1174 60.0687 85.4625 59.6942 85.8878 59.6942C86.3129 59.6942 86.6577 60.0687 86.6577 60.5307Z" fill="black"/>
<path id="Fill 17_2" fill-rule="evenodd" clip-rule="evenodd" d="M100.605 60.0175C100.605 60.4795 100.26 60.854 99.8344 60.854C99.4093 60.854 99.0642 60.4795 99.0642 60.0175C99.0642 59.5555 99.4093 59.1809 99.8344 59.1809C100.26 59.1809 100.605 59.5555 100.605 60.0175Z" fill="black"/>
<path id="Fill 19_2" fill-rule="evenodd" clip-rule="evenodd" d="M98.0635 68.2172C98.0635 69.8315 95.8109 71.1405 93.0319 71.1405C90.2529 71.1405 88.0002 69.8315 88.0002 68.2172C88.0002 66.6026 90.2891 67.8083 93.0681 67.8083C95.8471 67.8083 98.0635 66.6026 98.0635 68.2172Z" fill="white"/>
<path id="Fill 21_2" fill-rule="evenodd" clip-rule="evenodd" d="M98.6832 64.1975C98.4544 65.4767 99.3057 66.6991 100.585 66.9284C101.864 67.1572 103.087 66.3058 103.315 65.0266C103.544 63.7475 102.693 62.5249 101.414 62.2959C100.135 62.0668 98.912 62.9184 98.6832 64.1975Z" fill="#FF8B5E"/>
<path id="Fill 23_2" fill-rule="evenodd" clip-rule="evenodd" d="M82.1697 65.2242C81.9409 66.5034 82.7923 67.7258 84.0713 67.9551C85.3506 68.1839 86.5732 67.3325 86.802 66.0533C87.0308 64.7742 86.1795 63.5516 84.9004 63.3226C83.6212 63.0935 82.3985 63.9449 82.1697 65.2242Z" fill="#FF8B5E"/>
<path id="Fill 25" fill-rule="evenodd" clip-rule="evenodd" d="M74.1656 100.189C73.6157 107.809 70.8063 120.333 70.5046 128.844H80.9114C83.4922 120.326 84.5002 107.856 84.8181 100.702C85.3316 89.1514 84.45 76.0063 83.8342 70.1994C83.2353 64.5524 83.0643 59.5896 83.0643 59.5896C83.0643 59.5896 87.8555 57.5363 93.2461 53.5147C99.9828 48.4886 102.572 46.4986 101.716 44.0174C100.718 41.1212 92.5614 39.9104 86.8287 41.9638C81.0961 44.0174 74.1656 49.3221 73.909 61.1297C73.6523 72.9373 75.0641 87.7396 74.1656 100.189Z" fill="#46342D"/>
<path id="Fill 28" fill-rule="evenodd" clip-rule="evenodd" d="M123.815 128.612L125.759 116.599C125.759 116.599 123.706 118.31 119.342 118.823C114.978 119.336 112.668 118.31 112.668 118.31C112.668 118.31 111.82 122.667 110.86 128.612H123.815Z" fill="#FFA07A"/>
<path id="Fill 31" fill-rule="evenodd" clip-rule="evenodd" d="M66.2065 128.612C66.0225 123.007 65.8234 118.823 65.8234 118.823C65.8234 118.823 64.1547 119.208 60.3044 118.951C56.4543 118.695 53.374 117.112 53.374 117.112C53.374 117.112 53.3092 122.851 53.4102 128.612H66.2065Z" fill="#FFA07A"/>
<path id="Fill 40" fill-rule="evenodd" clip-rule="evenodd" d="M93.4207 59.3592L90.9271 63.3582C90.632 63.8311 90.9362 64.4495 91.491 64.5045L94.0194 64.7551L93.4207 59.3592Z" fill="#FF8B5E"/>
</g>
</g>
</g>
</g>
</g>
<defs>
<filter id="filter0_d_22_1901" x="0.126667" y="0.353334" width="137.747" height="137.747" filterUnits="userSpaceOnUse" color-interpolation-filters="sRGB">
<feFlood flood-opacity="0" result="BackgroundImageFix"/>
<feColorMatrix in="SourceAlpha" type="matrix" values="0 0 0 0 0 0 0 0 0 0 0 0 0 0 0 0 0 0 127 0" result="hardAlpha"/>
<feOffset dy="3.22667"/>
<feGaussianBlur stdDeviation="4.43667"/>
<feColorMatrix type="matrix" values="0 0 0 0 0 0 0 0 0 0.0856122 0 0 0 0 0.381962 0 0 0 0.15 0"/>
<feBlend mode="normal" in2="BackgroundImageFix" result="effect1_dropShadow_22_1901"/>
<feBlend mode="normal" in="SourceGraphic" in2="effect1_dropShadow_22_1901" result="shape"/>
</filter>
</defs>
</svg>
