<svg width="98" height="95" viewBox="0 0 98 95" fill="none" xmlns="http://www.w3.org/2000/svg">
<g filter="url(#filter0_d_1_300)">
<path d="M46.9635 4.7152C48.5312 4.36505 50.3466 4.36056 51.707 5.3257C53.081 6.21901 53.7882 7.76772 54.4009 9.22215C56.5452 14.5012 58.8021 19.7309 60.9418 25.01C61.6851 26.9088 63.1582 28.8301 65.3475 29.0411C70.8028 29.7728 76.3211 29.8267 81.7854 30.4776C84.0513 30.7424 86.6866 30.3294 88.5201 31.9949C90.9887 33.9162 91.1103 38.0775 88.6957 40.093C83.7675 44.6494 78.4474 48.7658 73.4651 53.2593C71.5956 54.7855 71.6632 57.4071 72.1677 59.5484C73.5327 65.0653 74.812 70.6003 76.1815 76.1173C76.6365 78.1014 76.9293 80.4895 75.3526 82.0831C73.6903 84.4084 70.2352 84.5925 67.9377 83.1426C62.7032 79.9643 57.4822 76.7637 52.2566 73.572C51.0448 72.8717 49.7204 72.1131 48.2654 72.3061C46.9185 72.4767 45.7607 73.2488 44.612 73.9087C39.6883 76.9522 34.7195 79.9105 29.8093 82.9675C28.0479 84.1346 25.6739 84.4444 23.7459 83.5107C22.48 82.8059 21.4259 81.6298 21.025 80.2292C20.6601 78.2495 21.2052 76.2699 21.6647 74.3576C22.8134 69.6666 23.9036 64.9576 25.0973 60.2756C25.6694 57.9323 26.0658 54.9606 23.9531 53.2413C18.9573 48.7792 13.7002 44.6045 8.72696 40.1155C5.61867 37.5253 6.92956 31.8871 10.8757 30.9399C17.8897 29.9973 25.0027 29.903 32.0347 29.0456C34.2465 28.8705 35.7286 26.9313 36.4764 25.019C38.5621 19.8431 40.801 14.7302 42.8867 9.54985C43.6525 7.5702 44.7381 5.33917 46.9635 4.7152Z" fill="#FFD754"/>
</g>
<defs>
<filter id="filter0_d_1_300" x="0" y="0.5" width="97.4408" height="93.5673" filterUnits="userSpaceOnUse" color-interpolation-filters="sRGB">
<feFlood flood-opacity="0" result="BackgroundImageFix"/>
<feColorMatrix in="SourceAlpha" type="matrix" values="0 0 0 0 0 0 0 0 0 0 0 0 0 0 0 0 0 0 127 0" result="hardAlpha"/>
<feOffset dy="3"/>
<feGaussianBlur stdDeviation="3.5"/>
<feColorMatrix type="matrix" values="0 0 0 0 0 0 0 0 0 0.0856122 0 0 0 0 0.381962 0 0 0 0.2 0"/>
<feBlend mode="normal" in2="BackgroundImageFix" result="effect1_dropShadow_1_300"/>
<feBlend mode="normal" in="SourceGraphic" in2="effect1_dropShadow_1_300" result="shape"/>
</filter>
</defs>
</svg>
