<svg width="279" height="110" viewBox="0 0 279 110" fill="none" xmlns="http://www.w3.org/2000/svg">
<g filter="url(#filter0_dd_24_2836)">
<rect x="6" y="17.5029" width="62.7984" height="84.5232" rx="9.14438" transform="rotate(-10 6 17.5029)" fill="#6E89F6"/>
</g>
<path fill-rule="evenodd" clip-rule="evenodd" d="M29.4691 49.2216C29.1704 49.2743 28.8533 49.1777 28.6351 48.934C27.9368 48.1432 26.7364 47.2976 25.5728 47.5441C25.0683 47.6055 24.604 47.3296 24.504 46.8404C24.4053 46.3521 24.7143 45.8768 25.2065 45.7716C27.0657 45.3853 28.9143 46.5294 29.9854 47.7327C30.3144 48.1047 30.2811 48.6759 29.9105 49.0096C29.7833 49.1261 29.6302 49.1932 29.4691 49.2216Z" fill="#664C33"/>
<path fill-rule="evenodd" clip-rule="evenodd" d="M45.5675 34.1683C45.1407 32.4558 43.4589 31.3419 41.7018 31.6517C41.693 31.6532 41.6885 31.654 41.6841 31.6548C41.6691 31.388 41.6023 31.1131 41.4689 30.8373C41.0868 30.0664 40.2602 29.5677 39.4018 29.6159C38.7008 29.6546 38.1113 30.0131 37.7423 30.5312C37.2539 30.2228 36.6608 30.0808 36.0488 30.1887C34.7338 30.4206 33.8549 31.6776 34.0871 32.9944C34.0879 32.9988 34.0886 33.0033 34.0892 33.0066C32.514 33.4059 31.4907 34.9613 31.7788 36.595C31.8225 36.843 31.8989 37.075 31.9969 37.2996C30.1061 37.7145 28.8679 39.5451 29.2072 41.4691C29.3221 42.1208 29.6026 42.6986 29.9997 43.171C29.5018 43.7507 29.2575 44.5472 29.4014 45.3635C29.5324 46.1064 29.967 46.7201 30.551 47.1091C32.384 44.9764 35.6707 50.4447 39.1465 54.6606C40.3014 56.0601 49.5203 52.7282 50.4489 53.5587C51.176 52.629 49.348 38.9888 49.1593 37.795C48.8619 35.8808 47.365 34.4648 45.5675 34.1683Z" fill="#88C057"/>
<path fill-rule="evenodd" clip-rule="evenodd" d="M49.9104 51.6913L50.4768 51.2016C51.5236 50.2865 52.9897 50.028 54.2864 50.5298L54.9861 50.7963C56.282 51.2937 57.7481 51.0352 58.7957 50.1246L60.4471 49.0135C60.5767 48.2292 60.6667 47.6675 60.6986 47.4199C61.4199 41.7426 61.4972 35.8876 60.648 30.2142C60.3085 27.9313 57.8051 24.717 54.9696 26.8797C52.185 29.0002 51.0599 35.4528 50.0271 38.6038C48.5582 43.0874 47.6077 47.8419 47.1764 52.5988C48.1541 52.6684 49.1411 52.3556 49.9104 51.6913Z" fill="#EEAF4B"/>
<path fill-rule="evenodd" clip-rule="evenodd" d="M26.6465 54.8531L27.9701 55.3582C29.4873 55.9416 31.2044 55.6388 32.4306 54.5717L32.7053 54.3306C33.7529 53.42 35.219 53.1615 36.5149 53.6589L37.2155 53.9298C37.9779 54.2208 38.7924 54.2481 39.5523 54.0372C39.7959 52.0999 39.1995 49.8348 38.0446 48.4353C34.1586 43.7183 31.8825 45.2216 29.9096 47.9123C29.5309 48.4274 29.0322 48.8467 28.4553 49.1274C25.9829 50.3293 24.281 51.8874 25.9584 55.01C26.125 54.8373 26.3869 54.751 26.6465 54.8531Z" fill="#FD7D63"/>
<path fill-rule="evenodd" clip-rule="evenodd" d="M51.824 49.3566C51.7285 49.3734 51.6307 49.3769 51.5291 49.3593C51.0371 49.2843 50.7017 48.824 50.7753 48.3317C51.0616 46.4809 52.7972 45.2116 54.6454 45.49C55.5097 45.6243 56.3221 45.0292 56.4556 44.1629C56.5286 43.6672 56.9891 43.3303 57.4841 43.4036C57.9768 43.483 58.3133 43.9431 58.2387 44.4356C57.9524 46.2864 56.2175 47.5602 54.3696 47.2771C53.5054 47.1428 52.693 47.7378 52.5595 48.6042C52.4998 49 52.1928 49.2916 51.824 49.3566Z" fill="#D59127"/>
<path fill-rule="evenodd" clip-rule="evenodd" d="M52.8313 42.7871C52.7403 42.8031 52.6379 42.8074 52.5371 42.7942C52.0444 42.7148 51.7079 42.2547 51.7826 41.7622C51.9241 40.8634 52.4018 40.0717 53.1296 39.5363C53.8592 39.004 54.7558 38.7828 55.6516 38.9207C56.5214 39.054 57.3283 38.4599 57.461 37.5891C57.5357 37.0966 57.9997 36.7602 58.4914 36.834C58.9841 36.9134 59.3206 37.3736 59.246 37.8661C58.9597 39.7169 57.2248 40.9906 55.3769 40.7076C54.9578 40.6427 54.5369 40.7433 54.1967 40.9959C53.8568 41.2439 53.6313 41.6151 53.5667 42.0347C53.506 42.4307 53.2045 42.7213 52.8313 42.7871Z" fill="#D59127"/>
<path fill-rule="evenodd" clip-rule="evenodd" d="M53.8422 36.2159C53.7467 36.2327 53.649 36.2373 53.548 36.2231C53.0555 36.1448 52.7157 35.6852 52.7936 35.1921C53.0397 33.5674 54.5652 32.451 56.188 32.6981C56.5011 32.7461 56.8095 32.6699 57.059 32.4872C57.3127 32.3025 57.4796 32.0277 57.527 31.7189C57.6017 31.2264 58.0603 30.8852 58.5574 30.9639C59.0493 31.0388 59.3858 31.4989 59.312 31.9959C59.1873 32.7827 58.7679 33.4759 58.1297 33.9416C57.488 34.4137 56.6986 34.6068 55.9122 34.4852C55.273 34.3869 54.6755 34.8236 54.5784 35.468C54.518 35.8594 54.211 36.1509 53.8422 36.2159Z" fill="#D59127"/>
<path fill-rule="evenodd" clip-rule="evenodd" d="M39.356 42.144C38.711 43.409 37.6217 44.9668 38.5415 47.2151L41.0249 53.2585L41.5913 52.7687C42.6381 51.8537 44.1042 51.5952 45.4009 52.097L46.1007 52.3635C46.6714 52.5805 47.1764 52.5992 47.1764 52.5992C47.5006 49.0342 48.1144 45.4686 49.023 42.0162C48.0299 40.4173 46.4608 40.0977 45.2893 39.6953C45.2815 39.6967 45.2763 39.693 45.271 39.6894C44.5255 39.4229 44.3235 38.5045 44.7275 37.8278C44.886 37.5578 44.9212 37.2248 44.7946 36.9158L44.6004 36.4443C44.3875 35.9257 43.7888 35.6735 43.2674 35.8858L38.0779 38.0198C37.5565 38.2322 37.3084 38.8321 37.5219 39.354L37.7172 39.8253C37.8435 40.139 38.1135 40.3517 38.4222 40.4269C39.1317 40.593 39.6599 41.2567 39.4376 41.9507C39.4129 42.0124 39.3893 42.0796 39.356 42.144Z" fill="#DAE7EF"/>
<path fill-rule="evenodd" clip-rule="evenodd" d="M44.5201 38.299L38.6429 40.7148C37.9926 40.982 37.2447 40.6701 36.9776 40.0188L36.8206 39.6349C36.5532 38.9825 36.8644 38.2339 37.5147 37.9667L43.392 35.5508C44.0378 35.2844 44.7876 35.6006 45.0539 36.2474L45.2162 36.6351C45.4816 37.2832 45.1671 38.0324 44.5201 38.299Z" fill="white"/>
<path fill-rule="evenodd" clip-rule="evenodd" d="M61.9526 48.4664L64.3253 71.0089C64.6053 73.2529 63.0766 75.3194 60.8553 75.7111L35.9129 80.1091C33.6916 80.5008 31.5494 79.0816 31.0439 76.8773L25.7322 55.6052C25.6178 55.1059 26.1105 54.6785 26.5897 54.8635L27.91 55.3692C29.4305 55.9519 31.1443 55.6497 32.3693 54.5829L32.644 54.3418C33.6961 53.4304 35.1578 53.1727 36.4537 53.67L37.1542 53.941C38.4545 54.4376 39.9162 54.1798 40.9638 53.2692L41.5294 52.775C42.5815 51.8636 44.0431 51.6059 45.339 52.1033L46.0396 52.3742C47.3399 52.8708 48.8016 52.6131 49.8492 51.7025L50.4148 51.2083C51.4669 50.2969 52.9285 50.0392 54.2244 50.5366L54.925 50.8075C56.2253 51.3041 57.6869 51.0464 58.7346 50.1358L61.5097 48.2669C61.6854 48.1465 61.9237 48.257 61.9526 48.4664Z" fill="#FFD342"/>
<g filter="url(#filter1_dd_24_2836)">
<rect x="210.905" y="6.93494" width="62.7984" height="84.1837" rx="8.92642" transform="rotate(10 210.905 6.93494)" fill="#6E89F6"/>
</g>
<mask id="mask0_24_2836" style="mask-type:luminance" maskUnits="userSpaceOnUse" x="211" y="29" width="50" height="50">
<path fill-rule="evenodd" clip-rule="evenodd" d="M218.84 29.8342L260.487 37.1777L253.178 78.6301L211.531 71.2866L218.84 29.8342Z" fill="white"/>
</mask>
<g mask="url(#mask0_24_2836)">
<path fill-rule="evenodd" clip-rule="evenodd" d="M218.772 29.739L211.449 71.2725L253.181 78.631L218.772 29.739ZM220.459 64.9957L223.19 49.5078L236.021 67.7397L220.459 64.9957Z" fill="#FFD342"/>
</g>
<path fill-rule="evenodd" clip-rule="evenodd" d="M238.587 68.5693L236.96 68.2823C236.607 68.22 236.371 67.8847 236.433 67.5336C236.495 67.1825 236.831 66.9484 237.184 67.0106L238.811 67.2976C239.165 67.3599 239.4 67.6949 239.338 68.046C239.277 68.3971 238.94 68.6315 238.587 68.5693Z" fill="#3C4B4F"/>
<path fill-rule="evenodd" clip-rule="evenodd" d="M251.354 70.8207L249.821 70.5504C249.468 70.4882 249.232 70.1529 249.294 69.8018C249.356 69.4507 249.692 69.2165 250.045 69.2788L251.578 69.5491C251.931 69.6113 252.167 69.9463 252.105 70.2974C252.043 70.6485 251.706 70.8829 251.354 70.8207Z" fill="#3C4B4F"/>
<path fill-rule="evenodd" clip-rule="evenodd" d="M242.866 71.1525L241.898 76.6411L239.692 71.4669L242.866 71.1525Z" fill="#566368"/>
<path fill-rule="evenodd" clip-rule="evenodd" d="M244.917 71.5141L243.949 77.0027L247.792 72.895L244.917 71.5141Z" fill="#566368"/>
<path fill-rule="evenodd" clip-rule="evenodd" d="M245.453 56.4842L242.717 71.9999L238.126 71.1904L241.659 51.1502L245.453 56.4842Z" fill="#EBEBEB"/>
<path fill-rule="evenodd" clip-rule="evenodd" d="M253.074 52.1023L249.359 73.1708L244.767 72.3612L247.506 56.8277L253.074 52.1023Z" fill="#EBEBEB"/>
<path fill-rule="evenodd" clip-rule="evenodd" d="M241.659 51.1502L245.453 56.4842L245.156 58.1658C243.369 57.601 241.913 56.4018 241.003 54.871L241.659 51.1502Z" fill="#D6D6D6"/>
<path fill-rule="evenodd" clip-rule="evenodd" d="M249.819 46.6761L250.278 44.0732L247.119 43.5156L246.66 46.1188L249.819 46.6761Z" fill="#D6D6D6"/>
<path fill-rule="evenodd" clip-rule="evenodd" d="M253.074 52.1023L252.256 56.7404C250.884 57.9065 249.098 58.5707 247.209 58.5137L247.506 56.8277L253.074 52.1023Z" fill="#D6D6D6"/>
<path fill-rule="evenodd" clip-rule="evenodd" d="M253.073 52.1021C252.524 55.2151 249.544 57.2916 246.416 56.7401C243.288 56.1885 241.197 53.2179 241.746 50.1049C242.295 46.9919 245.276 44.915 248.404 45.4665C251.532 46.0181 253.622 48.9892 253.073 52.1021Z" fill="#FD7D63"/>
<path fill-rule="evenodd" clip-rule="evenodd" d="M249.761 51.5183C249.533 52.8104 248.295 53.6727 246.997 53.4437C245.698 53.2148 244.83 51.9812 245.058 50.6891C245.286 49.3965 246.524 48.5346 247.822 48.7635C249.121 48.9925 249.989 50.2257 249.761 51.5183Z" fill="#EBEBEB"/>
<path fill-rule="evenodd" clip-rule="evenodd" d="M251.577 36.3968L248.524 35.8586C247.578 35.6916 246.676 36.3201 246.51 37.2619L245.4 43.5537L251.88 44.6963L252.99 38.4044C253.156 37.4626 252.523 36.5637 251.577 36.3968Z" fill="#FD7D63"/>
<path fill-rule="evenodd" clip-rule="evenodd" d="M253.512 69.0474L253 71.9528C252.913 72.4452 252.442 72.7732 251.948 72.686C251.454 72.5988 251.123 72.1295 251.209 71.6371L251.722 68.7317C251.809 68.2398 252.28 67.9113 252.774 67.9985C253.022 68.0421 253.227 68.181 253.361 68.3716C253.495 68.561 253.555 68.8017 253.512 69.0474Z" fill="#3C4B4F"/>
<path fill-rule="evenodd" clip-rule="evenodd" d="M237.329 66.1934L236.816 69.0988C236.73 69.5912 236.259 69.9192 235.764 69.832C235.27 69.7448 234.939 69.2755 235.026 68.7831L235.538 65.8777C235.625 65.3858 236.096 65.0573 236.591 65.1444C236.838 65.1881 237.045 65.3271 237.178 65.5175C237.311 65.707 237.372 65.9478 237.329 66.1934Z" fill="#3C4B4F"/>
<path fill-rule="evenodd" clip-rule="evenodd" d="M253.512 69.0474L253.349 69.9729C253.262 70.4653 252.791 70.7933 252.297 70.7062C251.803 70.619 251.472 70.1497 251.559 69.6573L251.722 68.7317C251.809 68.2398 252.28 67.9113 252.774 67.9985C253.022 68.0421 253.227 68.181 253.361 68.3716C253.495 68.561 253.555 68.8017 253.512 69.0474Z" fill="#566368"/>
<path fill-rule="evenodd" clip-rule="evenodd" d="M237.329 66.1934L237.166 67.119C237.079 67.6114 236.608 67.9394 236.113 67.8521C235.619 67.765 235.288 67.2957 235.375 66.8033L235.538 65.8777C235.625 65.3858 236.096 65.0573 236.591 65.1444C236.838 65.1881 237.045 65.3271 237.178 65.5175C237.311 65.707 237.372 65.9478 237.329 66.1934Z" fill="#566368"/>
<path fill-rule="evenodd" clip-rule="evenodd" d="M247.827 42.6296C247.474 42.5674 247.238 42.2324 247.3 41.8813L248.033 37.7239C248.095 37.3728 248.431 37.1384 248.784 37.2006C249.137 37.2628 249.373 37.5981 249.311 37.9492L248.578 42.1066C248.516 42.4577 248.18 42.6918 247.827 42.6296Z" fill="#FFA07A"/>
<path fill-rule="evenodd" clip-rule="evenodd" d="M249.916 42.9978C249.563 42.9356 249.327 42.6007 249.389 42.2496L250.122 38.0922C250.184 37.7411 250.52 37.5066 250.873 37.5688C251.226 37.631 251.462 37.9663 251.4 38.3174L250.667 42.4748C250.605 42.8259 250.269 43.06 249.916 42.9978Z" fill="#FFA07A"/>
<path fill-rule="evenodd" clip-rule="evenodd" d="M216.128 68.8874L215.579 72.0007L214.302 71.7755L214.851 68.6621C214.913 68.3104 215.248 68.0768 215.602 68.1391C215.954 68.2013 216.19 68.5356 216.128 68.8874Z" fill="#FF8B5E"/>
<path fill-rule="evenodd" clip-rule="evenodd" d="M221.174 69.7772L220.625 72.8905L219.348 72.6653L219.897 69.552C219.959 69.2002 220.294 68.9666 220.647 69.0289C221 69.0911 221.236 69.4255 221.174 69.7772Z" fill="#FF8B5E"/>
<path fill-rule="evenodd" clip-rule="evenodd" d="M226.221 70.6671L225.672 73.7804L224.395 73.5552L224.944 70.4418C225.006 70.0901 225.341 69.8565 225.694 69.9188C226.047 69.981 226.283 70.3153 226.221 70.6671Z" fill="#FF8B5E"/>
<path fill-rule="evenodd" clip-rule="evenodd" d="M231.267 71.5563L230.718 74.6696L229.441 74.4443L229.989 71.331C230.051 70.9793 230.387 70.7457 230.74 70.808C231.093 70.8702 231.329 71.2045 231.267 71.5563Z" fill="#FF8B5E"/>
<path fill-rule="evenodd" clip-rule="evenodd" d="M236.313 72.4462L235.764 75.5595L234.486 75.3342L235.035 72.2209C235.097 71.8692 235.433 71.6355 235.786 71.6978C236.139 71.7601 236.375 72.0944 236.313 72.4462Z" fill="#FF8B5E"/>
<g filter="url(#filter2_dd_24_2836)">
<rect x="83.1133" y="3.29849" width="62.6613" height="84" rx="8.90694" transform="rotate(7 83.1133 3.29849)" fill="#6E89F6"/>
</g>
<path d="M137.469 36.0108C137.087 36.7888 136.158 37.119 135.376 36.7695C132.857 35.5718 130.073 35.5151 127.574 36.4785C130.169 37.0506 132.559 38.5188 134.256 40.7258C134.804 41.4271 134.685 42.3964 133.983 42.9454C133.316 43.4668 132.315 43.3439 131.795 42.6767C129.821 40.1494 126.67 38.9376 123.525 39.4718L121.469 40.7111C120.509 41.291 119.863 40.6084 119.562 40.4771C119.507 40.4067 119.48 40.3715 119.456 40.305C118.916 39.541 119.04 38.7938 119.549 38.2541L121.249 36.5586C122.528 33.6377 122.114 30.2861 120.14 27.7589C119.62 27.0928 119.742 26.0921 120.409 25.5706C121.111 25.0217 122.081 25.1408 122.628 25.8431C124.36 28.0226 125.206 30.6965 125.134 33.3543C126.672 31.1629 127.291 28.4461 126.739 25.7128C126.589 24.8695 127.134 24.0479 127.982 23.8656C128.829 23.6834 129.65 24.2296 129.828 25.107C130.389 27.7778 130.027 30.4626 129.005 32.8446C129.072 32.821 129.134 32.8287 129.201 32.8061C131.689 32.4447 134.314 32.767 136.712 33.9182C137.521 34.3028 137.852 35.2318 137.471 36.01L137.469 36.0108Z" fill="#A6D128"/>
<path d="M137.469 36.0108C137.087 36.7888 136.158 37.119 135.376 36.7696C132.858 35.5718 130.073 35.5151 127.574 36.4785C130.17 37.0506 132.56 38.5188 134.256 40.7258C134.804 41.4271 134.685 42.3965 133.984 42.9454C133.317 43.4668 132.316 43.3439 131.796 42.6767C129.821 40.1494 126.67 38.9376 123.526 39.4718L121.469 40.7111C120.509 41.291 119.864 40.6084 119.563 40.4771C119.508 40.4067 119.48 40.3715 119.457 40.305L129.004 32.8456C129.071 32.8219 129.134 32.8296 129.2 32.806C131.688 32.4446 134.313 32.7669 136.711 33.9191C137.521 34.3037 137.851 35.2328 137.47 36.0109L137.469 36.0108Z" fill="#7FA611"/>
<path d="M121.132 52.7601L116.941 49.9289L118.671 54.711C116.853 55.8206 113.779 57.3473 110.105 59.0858L107.008 57.6898L107.174 60.4711C96.8089 65.2908 83.5426 71.0775 81.3338 72.0118C80.6934 72.3138 79.9275 72.0926 79.4885 71.5319C79.0496 70.9701 79.0212 70.1735 79.4692 69.6252C80.6447 68.0561 86.8201 60.066 92.8708 52.3999L94.6241 52.0755L94.8966 49.8558C97.0708 47.1392 99.1658 44.5411 101.021 42.3567L104.525 44.3106L103.129 39.9182C104.568 38.2861 105.737 37.0332 106.438 36.4852C111.072 32.866 118.293 33.7526 121.913 38.3853C125.309 42.7688 124.878 48.8719 121.132 52.7601Z" fill="#FF9E00"/>
<path d="M121.132 52.7601L116.941 49.9289L118.671 54.711C116.853 55.8206 113.779 57.3474 110.105 59.0858L107.008 57.6898L107.174 60.4712C96.8089 65.2908 83.5425 71.0775 81.3337 72.0118C80.6933 72.3139 79.9274 72.0926 79.4884 71.5319L121.914 38.3854C125.31 42.769 124.879 48.872 121.133 52.7602L121.132 52.7601Z" fill="#FF7814"/>
<path d="M107.284 47.8164C107.969 47.2813 108.09 46.2921 107.555 45.6061L103.113 39.9205C102.464 40.6582 101.772 41.4596 101.018 42.3542L105.074 47.5439C105.609 48.2288 106.598 48.3513 107.284 47.8153L107.284 47.8164Z" fill="#FF7814"/>
<path d="M121.146 52.7714L116.396 46.6917C115.86 46.0056 114.87 45.8841 114.185 46.4203C113.5 46.9564 113.379 47.9456 113.914 48.6305L118.677 54.7267C119.233 54.3973 119.703 54.0988 120.002 53.8651C120.427 53.5334 120.782 53.1488 121.146 52.7714Z" fill="#FF4A00"/>
<path d="M104.259 54.1778C103.574 54.7139 103.452 55.7031 103.987 56.388L107.178 60.4717C108.182 60.0054 109.161 59.5467 110.102 59.0993L106.47 54.4493C105.934 53.7632 104.945 53.6418 104.26 54.1779L104.259 54.1778Z" fill="#FF4A00"/>
<path d="M97.3561 55.5737C98.0412 55.0376 98.1626 54.0484 97.6275 53.3635L94.8933 49.8639C94.2231 50.703 93.5519 51.5494 92.879 52.4009L95.1459 55.3023C95.681 55.9872 96.6712 56.1088 97.3561 55.5737Z" fill="#FF7814"/>
<g filter="url(#filter3_dd_24_2836)">
<rect x="135.697" y="10.6532" width="62.7984" height="84.1837" rx="8.92642" transform="rotate(-7 135.697 10.6532)" fill="#6E89F6"/>
</g>
<path d="M170.095 56.2017L171.068 51.9436C167.917 49.5482 165.144 47.4467 163.055 42.072L172.903 40.8628L172.395 36.7186L162.614 37.9196L161.94 32.4378L157.72 32.956L158.401 38.5035L148.553 39.7127L149.062 43.8568L159.111 42.623C159.111 42.623 159.143 43.4327 159.082 44.051C158.348 49.7055 157.101 53.3864 150.753 57.6257L152.669 61.5971C158.682 57.399 161.506 52.7095 162.397 47.7826C164.248 51.2192 167.02 53.8637 170.096 56.2003L170.095 56.2017ZM182.415 36.9127L176.787 37.6037L170.329 66.4176L174.549 65.8994L176.346 57.2654L187.601 55.8835L191.433 63.8263L195.654 63.3081L182.416 36.9126L182.415 36.9127ZM177.243 52.9499L180.109 41.4025L185.692 51.9792L177.243 52.9486L177.243 52.9499Z" fill="white"/>
<defs>
<filter id="filter0_dd_24_2836" x="0.658254" y="4.65103" width="87.205" height="104.827" filterUnits="userSpaceOnUse" color-interpolation-filters="sRGB">
<feFlood flood-opacity="0" result="BackgroundImageFix"/>
<feColorMatrix in="SourceAlpha" type="matrix" values="0 0 0 0 0 0 0 0 0 0 0 0 0 0 0 0 0 0 127 0" result="hardAlpha"/>
<feOffset dy="3.39451"/>
<feGaussianBlur stdDeviation="3.39451"/>
<feColorMatrix type="matrix" values="0 0 0 0 0 0 0 0 0 0 0 0 0 0 0 0 0 0 0.1 0"/>
<feBlend mode="normal" in2="BackgroundImageFix" result="effect1_dropShadow_24_2836"/>
<feColorMatrix in="SourceAlpha" type="matrix" values="0 0 0 0 0 0 0 0 0 0 0 0 0 0 0 0 0 0 127 0" result="hardAlpha"/>
<feOffset dy="0.678901"/>
<feGaussianBlur stdDeviation="1.3578"/>
<feColorMatrix type="matrix" values="0 0 0 0 0 0 0 0 0 0 0 0 0 0 0 0 0 0 0.05 0"/>
<feBlend mode="normal" in2="effect1_dropShadow_24_2836" result="effect2_dropShadow_24_2836"/>
<feBlend mode="normal" in="SourceGraphic" in2="effect2_dropShadow_24_2836" result="shape"/>
</filter>
<filter id="filter1_dd_24_2836" x="190.911" y="4.95339" width="87.2147" height="104.562" filterUnits="userSpaceOnUse" color-interpolation-filters="sRGB">
<feFlood flood-opacity="0" result="BackgroundImageFix"/>
<feColorMatrix in="SourceAlpha" type="matrix" values="0 0 0 0 0 0 0 0 0 0 0 0 0 0 0 0 0 0 127 0" result="hardAlpha"/>
<feOffset dy="3.39451"/>
<feGaussianBlur stdDeviation="3.39451"/>
<feColorMatrix type="matrix" values="0 0 0 0 0 0 0 0 0 0 0 0 0 0 0 0 0 0 0.1 0"/>
<feBlend mode="normal" in2="BackgroundImageFix" result="effect1_dropShadow_24_2836"/>
<feColorMatrix in="SourceAlpha" type="matrix" values="0 0 0 0 0 0 0 0 0 0 0 0 0 0 0 0 0 0 127 0" result="hardAlpha"/>
<feOffset dy="0.678901"/>
<feGaussianBlur stdDeviation="1.3578"/>
<feColorMatrix type="matrix" values="0 0 0 0 0 0 0 0 0 0 0 0 0 0 0 0 0 0 0.05 0"/>
<feBlend mode="normal" in2="effect1_dropShadow_24_2836" result="effect2_dropShadow_24_2836"/>
<feBlend mode="normal" in="SourceGraphic" in2="effect2_dropShadow_24_2836" result="shape"/>
</filter>
<filter id="filter2_dd_24_2836" x="67.1203" y="0.929584" width="83.9429" height="102.522" filterUnits="userSpaceOnUse" color-interpolation-filters="sRGB">
<feFlood flood-opacity="0" result="BackgroundImageFix"/>
<feColorMatrix in="SourceAlpha" type="matrix" values="0 0 0 0 0 0 0 0 0 0 0 0 0 0 0 0 0 0 127 0" result="hardAlpha"/>
<feOffset dy="3.3871"/>
<feGaussianBlur stdDeviation="3.3871"/>
<feColorMatrix type="matrix" values="0 0 0 0 0 0 0 0 0 0 0 0 0 0 0 0 0 0 0.1 0"/>
<feBlend mode="normal" in2="BackgroundImageFix" result="effect1_dropShadow_24_2836"/>
<feColorMatrix in="SourceAlpha" type="matrix" values="0 0 0 0 0 0 0 0 0 0 0 0 0 0 0 0 0 0 127 0" result="hardAlpha"/>
<feOffset dy="0.677419"/>
<feGaussianBlur stdDeviation="1.35484"/>
<feColorMatrix type="matrix" values="0 0 0 0 0 0 0 0 0 0 0 0 0 0 0 0 0 0 0.05 0"/>
<feBlend mode="normal" in2="effect1_dropShadow_24_2836" result="effect2_dropShadow_24_2836"/>
<feBlend mode="normal" in="SourceGraphic" in2="effect2_dropShadow_24_2836" result="shape"/>
</filter>
<filter id="filter3_dd_24_2836" x="129.929" y="0.625911" width="84.1269" height="102.747" filterUnits="userSpaceOnUse" color-interpolation-filters="sRGB">
<feFlood flood-opacity="0" result="BackgroundImageFix"/>
<feColorMatrix in="SourceAlpha" type="matrix" values="0 0 0 0 0 0 0 0 0 0 0 0 0 0 0 0 0 0 127 0" result="hardAlpha"/>
<feOffset dy="3.39451"/>
<feGaussianBlur stdDeviation="3.39451"/>
<feColorMatrix type="matrix" values="0 0 0 0 0 0 0 0 0 0 0 0 0 0 0 0 0 0 0.1 0"/>
<feBlend mode="normal" in2="BackgroundImageFix" result="effect1_dropShadow_24_2836"/>
<feColorMatrix in="SourceAlpha" type="matrix" values="0 0 0 0 0 0 0 0 0 0 0 0 0 0 0 0 0 0 127 0" result="hardAlpha"/>
<feOffset dy="0.678901"/>
<feGaussianBlur stdDeviation="1.3578"/>
<feColorMatrix type="matrix" values="0 0 0 0 0 0 0 0 0 0 0 0 0 0 0 0 0 0 0.05 0"/>
<feBlend mode="normal" in2="effect1_dropShadow_24_2836" result="effect2_dropShadow_24_2836"/>
<feBlend mode="normal" in="SourceGraphic" in2="effect2_dropShadow_24_2836" result="shape"/>
</filter>
</defs>
</svg>
