<svg width="30" height="30" viewBox="0 0 30 30" fill="none" xmlns="http://www.w3.org/2000/svg">
<mask id="mask0_1524_876" style="mask-type:luminance" maskUnits="userSpaceOnUse" x="0" y="0" width="30" height="30">
<rect width="30" height="30" rx="15" fill="white"/>
</mask>
<g mask="url(#mask0_1524_876)">
<rect width="30" height="30" rx="15" fill="#009B3A"/>
<path d="M30 4H0V25H30V4Z" fill="#009B3A"/>
<path d="M2.54993 14.4999L14.9999 22.4499L27.4499 14.4999L14.9999 6.54993L2.54993 14.4999Z" fill="#FEDF00"/>
<path d="M15 19.75C17.8995 19.75 20.25 17.3995 20.25 14.5C20.25 11.6005 17.8995 9.25 15 9.25C12.1005 9.25 9.75 11.6005 9.75 14.5C9.75 17.3995 12.1005 19.75 15 19.75Z" fill="#002776"/>
<mask id="mask1_1524_876" style="mask-type:luminance" maskUnits="userSpaceOnUse" x="9" y="9" width="12" height="11">
<path d="M15 19.75C17.8995 19.75 20.25 17.3995 20.25 14.5C20.25 11.6005 17.8995 9.25 15 9.25C12.1005 9.25 9.75 11.6005 9.75 14.5C9.75 17.3995 12.1005 19.75 15 19.75Z" fill="white"/>
</mask>
<g mask="url(#mask1_1524_876)">
<path d="M-0.75 25C-0.75 21.6185 0.5933 18.3755 2.98439 15.9844C5.37548 13.5933 8.61849 12.25 12 12.25C15.3815 12.25 18.6245 13.5933 21.0156 15.9844C23.4067 18.3755 24.75 21.6185 24.75 25H24C24 21.8174 22.7357 18.7652 20.4853 16.5147C18.2348 14.2643 15.1826 13 12 13C8.8174 13 5.76515 14.2643 3.51472 16.5147C1.26428 18.7652 -4.47035e-08 21.8174 -4.47035e-08 25H-0.75Z" fill="white"/>
</g>
<path fill-rule="evenodd" clip-rule="evenodd" d="M10.5223 12.9654C10.5815 12.9582 10.6351 12.925 10.6713 12.8734C10.7075 12.8217 10.7232 12.7557 10.7152 12.6899C10.7071 12.6241 10.6758 12.5638 10.6282 12.5224C10.5806 12.4811 10.5206 12.4619 10.4614 12.4692C10.4021 12.4764 10.3485 12.5096 10.3124 12.5612C10.2762 12.6129 10.2604 12.6789 10.2685 12.7447C10.2766 12.8105 10.3079 12.8708 10.3555 12.9121C10.4031 12.9535 10.4631 12.9727 10.5223 12.9654M10.511 12.8733C10.5458 12.869 10.5771 12.8485 10.5981 12.8162C10.6191 12.7839 10.6281 12.7426 10.623 12.7012C10.6179 12.6598 10.5992 12.6219 10.571 12.5956C10.5428 12.5694 10.5075 12.5571 10.4727 12.5613C10.4379 12.5656 10.4065 12.5861 10.3855 12.6184C10.3645 12.6507 10.3556 12.692 10.3607 12.7334C10.3657 12.7748 10.3844 12.8127 10.4126 12.839C10.4408 12.8652 10.4762 12.8775 10.511 12.8733" fill="#009B3A"/>
<path fill-rule="evenodd" clip-rule="evenodd" d="M10.9298 12.9202L11.0224 12.9137L11.0095 12.7284L11.209 12.7145C11.2505 12.7116 11.2893 12.6923 11.3166 12.6608C11.3439 12.6294 11.3577 12.5883 11.3548 12.5468C11.3519 12.5052 11.3326 12.4665 11.3011 12.4391C11.2696 12.4118 11.2286 12.3981 11.187 12.401L10.902 12.4209L10.9298 12.9202ZM11.003 12.6358L11.1954 12.6223C11.2124 12.6212 11.2282 12.6133 11.2394 12.6004C11.2506 12.5875 11.2562 12.5707 11.255 12.5537C11.2538 12.5367 11.2459 12.5209 11.2331 12.5097C11.2202 12.4985 11.2034 12.4929 11.1864 12.4941L10.994 12.5075L11.003 12.6358Z" fill="#009B3A"/>
<path d="M11.3537 12.8906C11.3487 12.8194 11.3377 12.6626 11.2308 12.6701L11.0955 12.6796C11.2522 12.6686 11.2632 12.8254 11.2682 12.8966" fill="#009B3A"/>
<path fill-rule="evenodd" clip-rule="evenodd" d="M11.5634 12.8808L11.7991 12.8767C11.8272 12.8762 11.855 12.8702 11.8808 12.8589C11.9066 12.8477 11.9299 12.8315 11.9495 12.8113C11.969 12.791 11.9844 12.7671 11.9947 12.741C12.005 12.7148 12.0101 12.6868 12.0096 12.6587L12.0084 12.5873C12.0079 12.5591 12.0018 12.5314 11.9906 12.5056C11.9794 12.4797 11.9632 12.4564 11.943 12.4369C11.9227 12.4173 11.8988 12.4019 11.8726 12.3916C11.8465 12.3813 11.8185 12.3763 11.7904 12.3767L11.5547 12.3809L11.5634 12.8808ZM11.6546 12.7863L11.7903 12.784C11.8263 12.7833 11.8606 12.7684 11.8856 12.7425C11.9106 12.7166 11.9243 12.6819 11.9237 12.6459L11.9229 12.603C11.9223 12.5671 11.9074 12.5328 11.8815 12.5078C11.8556 12.4828 11.8208 12.4691 11.7848 12.4697L11.6492 12.4721L11.6546 12.7863Z" fill="#009B3A"/>
<path d="M12.1982 12.8746L12.648 12.8903L12.6512 12.7975L12.2872 12.7848L12.2916 12.6563L12.5772 12.6662L12.5802 12.5806L12.2946 12.5706L12.2981 12.4707L12.6408 12.4826L12.644 12.3898L12.2157 12.3749L12.1982 12.8746Z" fill="#009B3A"/>
<path d="M12.8326 12.9015L12.918 12.909L12.9479 12.5675L13.0177 12.9177L13.0959 12.9246L13.2254 12.5917L13.1955 12.9333L13.2809 12.9408L13.3245 12.4427L13.2 12.4318L13.0705 12.7646L13.0007 12.4143L12.8762 12.4034L12.8326 12.9015Z" fill="#009B3A"/>
<path d="M13.8686 13.0185L14.2382 13.082L14.2527 12.9975L13.9676 12.9485L13.987 12.8359L14.2193 12.8758L14.2338 12.7913L14.0015 12.7514L14.0148 12.6739L14.2911 12.7214L14.3056 12.6369L13.9448 12.575L13.8686 13.0185Z" fill="#009B3A"/>
<path fill-rule="evenodd" clip-rule="evenodd" d="M14.818 13.2049L14.9079 13.2281L14.9544 13.0483L15.1481 13.0984C15.1884 13.1089 15.2313 13.1028 15.2672 13.0817C15.3031 13.0605 15.3291 13.026 15.3396 12.9856C15.35 12.9453 15.344 12.9024 15.3228 12.8665C15.3017 12.8306 15.2671 12.8046 15.2268 12.7942L14.9502 12.7226L14.818 13.2049ZM14.9777 12.9585L15.1644 13.0067C15.1809 13.011 15.1984 13.0085 15.2131 12.9999C15.2278 12.9912 15.2385 12.9771 15.2427 12.9606C15.247 12.9441 15.2445 12.9266 15.2359 12.9119C15.2272 12.8972 15.2131 12.8865 15.1966 12.8823L15.0099 12.834L14.9777 12.9585Z" fill="#009B3A"/>
<path fill-rule="evenodd" clip-rule="evenodd" d="M15.4314 13.3686L15.52 13.3965L15.5758 13.2194L15.7666 13.2795C15.8063 13.2921 15.8494 13.2883 15.8864 13.269C15.9234 13.2498 15.9512 13.2167 15.9637 13.1769C15.9762 13.1372 15.9725 13.0941 15.9532 13.0571C15.934 13.0201 15.9008 12.9923 15.8611 12.9798L15.5886 12.8939L15.4314 13.3686ZM15.6038 13.1308L15.7877 13.1888C15.804 13.1939 15.8216 13.1924 15.8367 13.1845C15.8518 13.1767 15.8632 13.1631 15.8683 13.1468C15.8735 13.1306 15.8719 13.1129 15.864 13.0978C15.8562 13.0827 15.8426 13.0713 15.8264 13.0662L15.6424 13.0082L15.6038 13.1308Z" fill="#009B3A"/>
<path d="M15.8368 13.4963C15.8583 13.4282 15.9056 13.2784 15.8034 13.2461L15.674 13.2053C15.8238 13.2526 15.7766 13.4024 15.7551 13.4706" fill="#009B3A"/>
<path fill-rule="evenodd" clip-rule="evenodd" d="M16.2463 13.6428C16.3022 13.6637 16.3651 13.6591 16.421 13.63C16.477 13.6008 16.5214 13.5496 16.5446 13.4875C16.5679 13.4254 16.5679 13.3575 16.5448 13.2988C16.5217 13.2401 16.4773 13.1954 16.4214 13.1745C16.3655 13.1536 16.3027 13.1582 16.2468 13.1874C16.1908 13.2165 16.1464 13.2678 16.1231 13.3299C16.0999 13.392 16.0999 13.4598 16.123 13.5185C16.1461 13.5772 16.1904 13.6219 16.2463 13.6428M16.2789 13.5559C16.3117 13.5681 16.349 13.5644 16.3825 13.5455C16.416 13.5265 16.4431 13.494 16.4577 13.4549C16.4723 13.4159 16.4732 13.3736 16.4603 13.3373C16.4474 13.301 16.4218 13.2738 16.3889 13.2615C16.3561 13.2492 16.3188 13.2529 16.2853 13.2719C16.2518 13.2908 16.2247 13.3234 16.2101 13.3624C16.1955 13.4014 16.1946 13.4437 16.2075 13.48C16.2203 13.5163 16.246 13.5436 16.2789 13.5559" fill="#009B3A"/>
<mask id="mask2_1524_876" style="mask-type:luminance" maskUnits="userSpaceOnUse" x="16" y="13" width="2" height="1">
<path d="M16.6285 13.7909L16.8279 13.3324L17.2406 13.5118L17.0412 13.9704L16.6285 13.7909ZM16.9687 13.5728L16.9345 13.6514L17.1409 13.7411L17.175 13.6625L16.9687 13.5728Z" fill="white"/>
</mask>
<g mask="url(#mask2_1524_876)">
<path fill-rule="evenodd" clip-rule="evenodd" d="M16.8348 13.8806C16.8896 13.9044 16.9526 13.9031 17.0099 13.8769C17.0673 13.8508 17.1144 13.8019 17.1409 13.7411C17.1673 13.6803 17.1709 13.6125 17.1509 13.5527C17.1309 13.4929 17.0889 13.4459 17.0342 13.4221C16.9795 13.3983 16.9165 13.3997 16.8591 13.4258C16.8017 13.452 16.7546 13.5009 16.7282 13.5617C16.7018 13.6225 16.6981 13.6902 16.7181 13.7501C16.7381 13.8099 16.7801 13.8569 16.8348 13.8806M16.8719 13.7955C16.904 13.8095 16.9414 13.8077 16.9759 13.7905C17.0104 13.7734 17.0391 13.7423 17.0557 13.7041C17.0723 13.6659 17.0755 13.6236 17.0645 13.5867C17.0536 13.5498 17.0293 13.5212 16.9972 13.5073C16.9651 13.4933 16.9276 13.4951 16.8932 13.5122C16.8587 13.5294 16.83 13.5605 16.8133 13.5987C16.7967 13.6369 16.7936 13.6791 16.8045 13.716C16.8155 13.7529 16.8397 13.7815 16.8719 13.7955" fill="#009B3A"/>
</g>
<path d="M17.1409 13.741L16.9673 13.6655L16.9388 13.731L17.1124 13.8065L17.1409 13.741Z" fill="#009B3A"/>
<path d="M17.1408 13.741L17.0753 13.7125L16.9756 13.9418L17.0411 13.9703L17.1408 13.741Z" fill="#009B3A"/>
<path fill-rule="evenodd" clip-rule="evenodd" d="M17.2088 14.0485L17.2919 14.09L17.3748 13.9238L17.5537 14.013C17.591 14.0316 17.6342 14.0346 17.6737 14.0214C17.7132 14.0082 17.7459 13.9798 17.7645 13.9425C17.7831 13.9052 17.7861 13.862 17.7729 13.8225C17.7597 13.783 17.7313 13.7503 17.694 13.7317L17.4383 13.6043L17.2088 14.0485ZM17.4162 13.8407L17.5888 13.9267C17.604 13.9343 17.6217 13.9356 17.6379 13.9302C17.654 13.9247 17.6674 13.9131 17.675 13.8979C17.6826 13.8826 17.6838 13.865 17.6784 13.8488C17.673 13.8326 17.6614 13.8193 17.6461 13.8117L17.4736 13.7256L17.4162 13.8407Z" fill="#009B3A"/>
<path d="M17.5891 14.2382C17.621 14.1743 17.6911 14.0337 17.5952 13.9858L17.4738 13.9253C17.6144 13.9954 17.5443 14.136 17.5124 14.2" fill="#009B3A"/>
<path d="M17.7748 14.3362L18.1664 14.5578L18.2122 14.477L17.8951 14.2976L17.9584 14.1857L18.2071 14.3264L18.2493 14.2518L18.0006 14.1111L18.0499 14.024L18.3483 14.1929L18.394 14.112L18.021 13.901L17.7748 14.3362Z" fill="#009B3A"/>
<path d="M18.5043 14.5809C18.4774 14.623 18.5046 14.67 18.5649 14.7084C18.6251 14.7468 18.6661 14.7454 18.6835 14.7183C18.7382 14.6325 18.422 14.5073 18.5194 14.3576C18.6035 14.2291 18.7472 14.3291 18.8014 14.3637C18.8557 14.3982 18.9427 14.4875 18.875 14.5905L18.7831 14.532C18.8119 14.4868 18.7803 14.4434 18.7321 14.4126C18.6854 14.3829 18.6475 14.3693 18.6197 14.413C18.5731 14.4828 18.8829 14.6146 18.788 14.7637C18.7179 14.8736 18.596 14.8256 18.5147 14.7738C18.4454 14.7297 18.3419 14.6256 18.4094 14.5204L18.5043 14.5809Z" fill="#009B3A"/>
<path d="M19.0407 14.9356C19.0116 14.9763 19.0364 15.0246 19.0945 15.0661C19.1527 15.1076 19.1937 15.1083 19.2124 15.0822C19.2715 14.9993 18.9623 14.8578 19.0675 14.7134C19.1581 14.5894 19.2964 14.6969 19.3488 14.7342C19.4011 14.7715 19.4834 14.8653 19.4104 14.9646L19.3217 14.9013C19.3528 14.8577 19.3235 14.8127 19.277 14.7795C19.2319 14.7474 19.1948 14.7318 19.1647 14.774C19.1145 14.8413 19.417 14.9891 19.3144 15.133C19.2387 15.2391 19.1195 15.1848 19.041 15.1288C18.9741 15.0811 18.8762 14.9718 18.9491 14.8702L19.0407 14.9356Z" fill="#009B3A"/>
<path fill-rule="evenodd" clip-rule="evenodd" d="M19.5479 15.5109C19.5946 15.548 19.6558 15.563 19.718 15.5526C19.7802 15.5422 19.8384 15.5072 19.8797 15.4553C19.9209 15.4034 19.942 15.3389 19.9381 15.2759C19.9343 15.2129 19.9059 15.1567 19.8592 15.1196C19.8125 15.0824 19.7513 15.0674 19.6891 15.0778C19.6269 15.0882 19.5688 15.1233 19.5275 15.1751C19.4862 15.227 19.4652 15.2916 19.469 15.3545C19.4728 15.4175 19.5012 15.4737 19.5479 15.5109M19.6057 15.4382C19.6332 15.46 19.6698 15.468 19.7075 15.4603C19.7453 15.4527 19.781 15.4301 19.807 15.3975C19.8329 15.3649 19.8469 15.3249 19.8459 15.2864C19.8448 15.2479 19.8288 15.214 19.8014 15.1922C19.774 15.1704 19.7373 15.1624 19.6996 15.1701C19.6619 15.1777 19.6261 15.2003 19.6001 15.2329C19.5742 15.2656 19.5602 15.3055 19.5613 15.344C19.5623 15.3825 19.5783 15.4164 19.6057 15.4382" fill="#009B3A"/>
<path d="M10.7144 13.3322L10.6448 13.5461L10.7518 13.5809" fill="white"/>
<path d="M10.7144 13.3322L10.7839 13.5461L10.6769 13.5809" fill="white"/>
<path d="M10.9282 13.4875H10.7032V13.6" fill="white"/>
<path d="M10.9282 13.4875L10.7462 13.6198L10.6801 13.5288" fill="white"/>
<path d="M10.5002 13.4875L10.6823 13.6198L10.7484 13.5288" fill="white"/>
<path d="M10.5002 13.4875H10.7252V13.6" fill="white"/>
<path d="M10.8464 13.7391L10.7769 13.5251L10.6699 13.5599" fill="white"/>
<path d="M10.8464 13.7391L10.6644 13.6069L10.7305 13.5159" fill="white"/>
<path d="M10.582 13.7391L10.7641 13.6069L10.6979 13.5159" fill="white"/>
<path d="M10.582 13.7391L10.6516 13.5251L10.7586 13.5599" fill="white"/>
<path d="M11.1786 15.5393L11.1091 15.7533L11.2161 15.7881" fill="white"/>
<path d="M11.1786 15.5393L11.2481 15.7533L11.1411 15.7881" fill="white"/>
<path d="M11.3926 15.6947H11.1676V15.8072" fill="white"/>
<path d="M11.3926 15.6947L11.2105 15.827L11.1444 15.7359" fill="white"/>
<path d="M10.9646 15.6947L11.1466 15.827L11.2128 15.7359" fill="white"/>
<path d="M10.9646 15.6947H11.1896V15.8072" fill="white"/>
<path d="M11.3108 15.9463L11.2413 15.7323L11.1343 15.7671" fill="white"/>
<path d="M11.3108 15.9463L11.1288 15.814L11.1949 15.723" fill="white"/>
<path d="M11.0464 15.9463L11.2284 15.814L11.1623 15.723" fill="white"/>
<path d="M11.0464 15.9463L11.1159 15.7323L11.2229 15.7671" fill="white"/>
<path d="M10.5358 16.0482L10.4778 16.2265L10.567 16.2555" fill="white"/>
<path d="M10.5358 16.0482L10.5937 16.2265L10.5045 16.2555" fill="white"/>
<path d="M10.7141 16.1779H10.5266V16.2716" fill="white"/>
<path d="M10.7141 16.1779L10.5624 16.2881L10.5073 16.2122" fill="white"/>
<path d="M10.3574 16.1779L10.5091 16.2881L10.5642 16.2122" fill="white"/>
<path d="M10.3574 16.1779H10.5449V16.2716" fill="white"/>
<path d="M10.646 16.3875L10.5881 16.2091L10.4989 16.2381" fill="white"/>
<path d="M10.646 16.3875L10.4943 16.2772L10.5494 16.2014" fill="white"/>
<path d="M10.4255 16.3875L10.5772 16.2772L10.5221 16.2014" fill="white"/>
<path d="M10.4255 16.3875L10.4835 16.2091L10.5726 16.2381" fill="white"/>
<path d="M11.6929 15.3357L11.6598 15.4376L11.7107 15.4541" fill="white"/>
<path d="M11.6929 15.3357L11.726 15.4376L11.675 15.4541" fill="white"/>
<path d="M11.7947 15.4098H11.6875V15.4634" fill="white"/>
<path d="M11.7947 15.4098L11.708 15.4728L11.6765 15.4294" fill="white"/>
<path d="M11.5909 15.4098L11.6776 15.4728L11.7091 15.4294" fill="white"/>
<path d="M11.5909 15.4098H11.6981V15.4634" fill="white"/>
<path d="M11.7559 15.5295L11.7228 15.4276L11.6718 15.4442" fill="white"/>
<path d="M11.7559 15.5295L11.6692 15.4666L11.7007 15.4232" fill="white"/>
<path d="M11.6299 15.5295L11.7166 15.4666L11.6851 15.4232" fill="white"/>
<path d="M11.6299 15.5295L11.663 15.4276L11.7139 15.4442" fill="white"/>
<path d="M12.2715 16.0983L12.2135 16.2766L12.3027 16.3056" fill="white"/>
<path d="M12.2715 16.0983L12.3294 16.2766L12.2403 16.3056" fill="white"/>
<path d="M12.4498 16.2278H12.2623V16.3215" fill="white"/>
<path d="M12.4498 16.2278L12.2981 16.338L12.243 16.2621" fill="white"/>
<path d="M12.0931 16.2278L12.2448 16.338L12.2999 16.2621" fill="white"/>
<path d="M12.0931 16.2278H12.2806V16.3215" fill="white"/>
<path d="M12.3817 16.4374L12.3238 16.2591L12.2346 16.288" fill="white"/>
<path d="M12.3817 16.4374L12.23 16.3272L12.2851 16.2513" fill="white"/>
<path d="M12.1613 16.4374L12.3129 16.3272L12.2578 16.2513" fill="white"/>
<path d="M12.1613 16.4374L12.2192 16.2591L12.3084 16.288" fill="white"/>
<path d="M12.1143 16.6572L12.0679 16.7999L12.1392 16.8231" fill="white"/>
<path d="M12.1143 16.6572L12.1606 16.7999L12.0893 16.8231" fill="white"/>
<path d="M12.257 16.7609H12.107V16.8359" fill="white"/>
<path d="M12.257 16.7609L12.1356 16.849L12.0915 16.7884" fill="white"/>
<path d="M11.9716 16.7609L12.0929 16.849L12.137 16.7884" fill="white"/>
<path d="M11.9716 16.7609H12.1216V16.8359" fill="white"/>
<path d="M12.2025 16.9285L12.1562 16.7858L12.0848 16.809" fill="white"/>
<path d="M12.2025 16.9285L12.0812 16.8403L12.1252 16.7796" fill="white"/>
<path d="M12.0261 16.9285L12.1475 16.8403L12.1034 16.7796" fill="white"/>
<path d="M12.0261 16.9285L12.0725 16.7858L12.1438 16.809" fill="white"/>
<path d="M16.6285 12.6465L16.559 12.8605L16.666 12.8952" fill="white"/>
<path d="M16.6285 12.6465L16.6981 12.8605L16.5911 12.8952" fill="white"/>
<path d="M16.8425 12.8019H16.6175V12.9144" fill="white"/>
<path d="M16.8425 12.8019L16.6605 12.9341L16.5944 12.8431" fill="white"/>
<path d="M16.4147 12.8019L16.5967 12.9341L16.6628 12.8431" fill="white"/>
<path d="M16.4147 12.8019H16.6397V12.9144" fill="white"/>
<path d="M16.7607 13.0535L16.6912 12.8395L16.5842 12.8742" fill="white"/>
<path d="M16.7607 13.0535L16.5787 12.9212L16.6448 12.8302" fill="white"/>
<path d="M16.4963 13.0535L16.6784 12.9212L16.6122 12.8302" fill="white"/>
<path d="M16.4963 13.0535L16.5659 12.8395L16.6729 12.8742" fill="white"/>
<path d="M18.6786 16.1179L18.6091 16.3319L18.7161 16.3667" fill="white"/>
<path d="M18.6786 16.1179L18.7481 16.3319L18.6411 16.3667" fill="white"/>
<path d="M18.8926 16.2733H18.6676V16.3858" fill="white"/>
<path d="M18.8926 16.2733L18.7105 16.4056L18.6444 16.3146" fill="white"/>
<path d="M18.4646 16.2733L18.6466 16.4056L18.7128 16.3146" fill="white"/>
<path d="M18.4646 16.2733H18.6896V16.3858" fill="white"/>
<path d="M18.8108 16.5249L18.7413 16.3109L18.6343 16.3457" fill="white"/>
<path d="M18.8108 16.5249L18.6288 16.3927L18.6949 16.3016" fill="white"/>
<path d="M18.5463 16.5249L18.7283 16.3927L18.6622 16.3016" fill="white"/>
<path d="M18.5463 16.5249L18.6158 16.3109L18.7228 16.3457" fill="white"/>
<path d="M19.4071 16.2428L19.3608 16.3855L19.4321 16.4086" fill="white"/>
<path d="M19.4071 16.2428L19.4535 16.3855L19.3821 16.4086" fill="white"/>
<path d="M19.5498 16.3464H19.3998V16.4214" fill="white"/>
<path d="M19.5498 16.3464L19.4285 16.4346L19.3844 16.3739" fill="white"/>
<path d="M19.2644 16.3464L19.3858 16.4346L19.4298 16.3739" fill="white"/>
<path d="M19.2644 16.3464H19.4144V16.4214" fill="white"/>
<path d="M19.4954 16.5142L19.449 16.3715L19.3777 16.3947" fill="white"/>
<path d="M19.4954 16.5142L19.374 16.426L19.4181 16.3653" fill="white"/>
<path d="M19.319 16.5142L19.4403 16.426L19.3962 16.3653" fill="white"/>
<path d="M19.319 16.5142L19.3653 16.3715L19.4367 16.3947" fill="white"/>
<path d="M18.8928 16.6196L18.8349 16.798L18.924 16.8269" fill="white"/>
<path d="M18.8928 16.6196L18.9508 16.798L18.8616 16.8269" fill="white"/>
<path d="M19.0712 16.7491H18.8837V16.8429" fill="white"/>
<path d="M19.0712 16.7491L18.9195 16.8594L18.8644 16.7835" fill="white"/>
<path d="M18.7146 16.7491L18.8663 16.8594L18.9214 16.7835" fill="white"/>
<path d="M18.7146 16.7491H18.9021V16.8429" fill="white"/>
<path d="M19.0031 16.9589L18.9451 16.7805L18.8559 16.8095" fill="white"/>
<path d="M19.0031 16.9589L18.8514 16.8487L18.9065 16.7728" fill="white"/>
<path d="M18.7827 16.9589L18.9344 16.8487L18.8793 16.7728" fill="white"/>
<path d="M18.7827 16.9589L18.8407 16.7805L18.9298 16.8095" fill="white"/>
<path d="M17.6287 17.7196L17.5707 17.8979L17.6599 17.9269" fill="white"/>
<path d="M17.6287 17.7196L17.6866 17.8979L17.5974 17.9269" fill="white"/>
<path d="M17.8069 17.8491H17.6194V17.9429" fill="white"/>
<path d="M17.8069 17.8491L17.6552 17.9593L17.6001 17.8835" fill="white"/>
<path d="M17.4503 17.8492L17.602 17.9595L17.6571 17.8836" fill="white"/>
<path d="M17.4503 17.8492H17.6378V17.943" fill="white"/>
<path d="M17.7388 18.0588L17.6808 17.8805L17.5917 17.9095" fill="white"/>
<path d="M17.7388 18.0588L17.5871 17.9486L17.6422 17.8728" fill="white"/>
<path d="M17.5184 18.0588L17.6701 17.9486L17.615 17.8728" fill="white"/>
<path d="M17.5184 18.0588L17.5764 17.8805L17.6655 17.9095" fill="white"/>
<path d="M17.6215 18.2858L17.5751 18.4284L17.6464 18.4516" fill="white"/>
<path d="M17.6215 18.2858L17.6678 18.4284L17.5965 18.4516" fill="white"/>
<path d="M17.7642 18.3894H17.6142V18.4644" fill="white"/>
<path d="M17.7642 18.3894L17.6428 18.4776L17.5987 18.4169" fill="white"/>
<path d="M17.4788 18.3894L17.6001 18.4776L17.6442 18.4169" fill="white"/>
<path d="M17.4788 18.3894H17.6288V18.4644" fill="white"/>
<path d="M17.7096 18.557L17.6632 18.4143L17.5919 18.4375" fill="white"/>
<path d="M17.7096 18.557L17.5882 18.4688L17.6323 18.4082" fill="white"/>
<path d="M17.5332 18.557L17.6546 18.4688L17.6105 18.4082" fill="white"/>
<path d="M17.5332 18.557L17.5796 18.4143L17.6509 18.4375" fill="white"/>
<path d="M18.15 17.3429L18.1037 17.4856L18.175 17.5087" fill="white"/>
<path d="M18.15 17.3429L18.1964 17.4856L18.125 17.5087" fill="white"/>
<path d="M18.2926 17.4464H18.1426V17.5214" fill="white"/>
<path d="M18.2926 17.4464L18.1712 17.5346L18.1272 17.4739" fill="white"/>
<path d="M18.0073 17.4464L18.1287 17.5346L18.1728 17.4739" fill="white"/>
<path d="M18.0073 17.4464H18.1573V17.5214" fill="white"/>
<path d="M18.2382 17.6141L18.1918 17.4715L18.1205 17.4947" fill="white"/>
<path d="M18.2382 17.6141L18.1168 17.526L18.1609 17.4653" fill="white"/>
<path d="M18.0619 17.6143L18.1832 17.5261L18.1392 17.4654" fill="white"/>
<path d="M18.0619 17.6143L18.1082 17.4716L18.1796 17.4948" fill="white"/>
<path d="M18.5714 17.0411L18.5135 17.2195L18.6026 17.2484" fill="white"/>
<path d="M18.5714 17.0411L18.6294 17.2195L18.5402 17.2484" fill="white"/>
<path d="M18.7498 17.1707H18.5623V17.2644" fill="white"/>
<path d="M18.7498 17.1707L18.5981 17.2809L18.543 17.205" fill="white"/>
<path d="M18.3931 17.1707L18.5448 17.2809L18.5999 17.205" fill="white"/>
<path d="M18.3931 17.1707H18.5806V17.2644" fill="white"/>
<path d="M18.6816 17.3802L18.6237 17.2019L18.5345 17.2309" fill="white"/>
<path d="M18.6816 17.3802L18.5299 17.27L18.5851 17.1942" fill="white"/>
<path d="M18.4612 17.3802L18.6129 17.27L18.5578 17.1942" fill="white"/>
<path d="M18.4612 17.3802L18.5191 17.2019L18.6083 17.2309" fill="white"/>
<path d="M17.6072 17.2428L17.5608 17.3855L17.6322 17.4086" fill="white"/>
<path d="M17.6072 17.2428L17.6535 17.3855L17.5822 17.4086" fill="white"/>
<path d="M17.7498 17.3464H17.5998V17.4214" fill="white"/>
<path d="M17.7498 17.3464L17.6284 17.4346L17.5843 17.3739" fill="white"/>
<path d="M17.4645 17.3464L17.5858 17.4346L17.6299 17.3739" fill="white"/>
<path d="M17.4645 17.3464H17.6145V17.4214" fill="white"/>
<path d="M17.6953 17.5143L17.649 17.3716L17.5776 17.3948" fill="white"/>
<path d="M17.6953 17.5143L17.574 17.4261L17.618 17.3654" fill="white"/>
<path d="M17.5189 17.5142L17.6403 17.426L17.5962 17.3653" fill="white"/>
<path d="M17.5189 17.5142L17.5653 17.3715L17.6366 17.3947" fill="white"/>
<path d="M13 14.5267L12.9421 14.7051L13.0312 14.734" fill="white"/>
<path d="M13 14.5267L13.0579 14.7051L12.9688 14.734" fill="white"/>
<path d="M13.1783 14.6564H12.9908V14.7501" fill="white"/>
<path d="M13.1783 14.6564L13.0267 14.7666L12.9715 14.6907" fill="white"/>
<path d="M12.8217 14.6564L12.9733 14.7666L13.0285 14.6907" fill="white"/>
<path d="M12.8217 14.6564H13.0092V14.7501" fill="white"/>
<path d="M13.1102 14.866L13.0523 14.6876L12.9631 14.7166" fill="white"/>
<path d="M13.1102 14.866L12.9585 14.7558L13.0136 14.6799" fill="white"/>
<path d="M12.8898 14.866L13.0415 14.7558L12.9864 14.6799" fill="white"/>
<path d="M12.8898 14.866L12.9477 14.6876L13.0369 14.7166" fill="white"/>
<path d="M16.4286 14.0857L16.3822 14.2284L16.4536 14.2515" fill="white"/>
<path d="M16.4286 14.0857L16.4749 14.2284L16.4036 14.2515" fill="white"/>
<path d="M16.5713 14.1893H16.4213V14.2643" fill="white"/>
<path d="M16.5713 14.1893L16.4499 14.2775L16.4059 14.2168" fill="white"/>
<path d="M16.2859 14.1895L16.4072 14.2776L16.4513 14.2169" fill="white"/>
<path d="M16.2859 14.1895H16.4359V14.2645" fill="white"/>
<path d="M16.5167 14.3571L16.4704 14.2144L16.399 14.2376" fill="white"/>
<path d="M16.5167 14.3571L16.3954 14.2689L16.4395 14.2082" fill="white"/>
<path d="M16.3403 14.3571L16.4617 14.2689L16.4176 14.2082" fill="white"/>
<path d="M16.3403 14.3571L16.3867 14.2144L16.458 14.2376" fill="white"/>
<path d="M15 16.6321L14.9305 16.8461L15.0375 16.8808" fill="white"/>
<path d="M15 16.6321L15.0695 16.8461L14.9625 16.8808" fill="white"/>
<path d="M15.214 16.7876H14.989V16.9001" fill="white"/>
<path d="M15.214 16.7876L15.032 16.9198L14.9658 16.8288" fill="white"/>
<path d="M14.786 16.7876L14.968 16.9198L15.0342 16.8288" fill="white"/>
<path d="M14.786 16.7876H15.011V16.9001" fill="white"/>
<path d="M15.1323 17.0392L15.0628 16.8252L14.9558 16.86" fill="white"/>
<path d="M15.1323 17.0392L14.9503 16.9069L15.0164 16.8159" fill="white"/>
<path d="M14.8677 17.0392L15.0497 16.9069L14.9836 16.8159" fill="white"/>
<path d="M14.8677 17.0392L14.9372 16.8252L15.0442 16.86" fill="white"/>
<path d="M15.6072 15.6268L15.5492 15.8052L15.6384 15.8341" fill="white"/>
<path d="M15.6072 15.6268L15.6651 15.8052L15.576 15.8341" fill="white"/>
<path d="M15.7854 15.7563H15.5979V15.8501" fill="white"/>
<path d="M15.7854 15.7563L15.6337 15.8666L15.5786 15.7907" fill="white"/>
<path d="M15.4288 15.7563L15.5805 15.8666L15.6356 15.7907" fill="white"/>
<path d="M15.4288 15.7563H15.6163V15.8501" fill="white"/>
<path d="M15.7174 15.9659L15.6595 15.7876L15.5703 15.8166" fill="white"/>
<path d="M15.7174 15.9659L15.5657 15.8557L15.6208 15.7799" fill="white"/>
<path d="M15.4969 15.9659L15.6486 15.8557L15.5935 15.7799" fill="white"/>
<path d="M15.4969 15.9659L15.5549 15.7876L15.6441 15.8166" fill="white"/>
<path d="M15 15.1554L14.9421 15.3337L15.0312 15.3627" fill="white"/>
<path d="M15 15.1554L15.0579 15.3337L14.9688 15.3627" fill="white"/>
<path d="M15.1783 15.2849H14.9908V15.3787" fill="white"/>
<path d="M15.1783 15.2849L15.0267 15.3951L14.9715 15.3193" fill="white"/>
<path d="M14.8217 15.2849L14.9733 15.3951L15.0285 15.3193" fill="white"/>
<path d="M14.8217 15.2849H15.0092V15.3787" fill="white"/>
<path d="M15.1102 15.4945L15.0523 15.3162L14.9631 15.3452" fill="white"/>
<path d="M15.1102 15.4945L14.9585 15.3843L15.0136 15.3085" fill="white"/>
<path d="M14.8898 15.4945L15.0415 15.3843L14.9864 15.3085" fill="white"/>
<path d="M14.8898 15.4945L14.9477 15.3162L15.0369 15.3452" fill="white"/>
<path d="M14.4714 15.6643L14.4251 15.807L14.4964 15.8301" fill="white"/>
<path d="M14.4714 15.6643L14.5178 15.807L14.4465 15.8301" fill="white"/>
<path d="M14.6141 15.7679H14.4641V15.8429" fill="white"/>
<path d="M14.6141 15.7679L14.4928 15.8561L14.4487 15.7954" fill="white"/>
<path d="M14.3289 15.7679L14.4502 15.8561L14.4943 15.7954" fill="white"/>
<path d="M14.3289 15.7679H14.4789V15.8429" fill="white"/>
<path d="M14.5596 15.9357L14.5132 15.793L14.4419 15.8162" fill="white"/>
<path d="M14.5596 15.9357L14.4382 15.8475L14.4823 15.7868" fill="white"/>
<path d="M14.3833 15.9357L14.5047 15.8475L14.4606 15.7868" fill="white"/>
<path d="M14.3833 15.9357L14.4297 15.793L14.501 15.8162" fill="white"/>
<path d="M14.7357 16.0714L14.7026 16.1733L14.7536 16.1899" fill="white"/>
<path d="M14.7357 16.0714L14.7688 16.1733L14.7179 16.1899" fill="white"/>
<path d="M14.8375 16.1455H14.7304V16.1991" fill="white"/>
<path d="M14.8375 16.1455L14.7508 16.2085L14.7194 16.1651" fill="white"/>
<path d="M14.6338 16.1455L14.7205 16.2085L14.752 16.1651" fill="white"/>
<path d="M14.6338 16.1455H14.7409V16.1991" fill="white"/>
<path d="M14.7987 16.2653L14.7656 16.1634L14.7146 16.1799" fill="white"/>
<path d="M14.7987 16.2653L14.712 16.2023L14.7435 16.1589" fill="white"/>
<path d="M14.6727 16.2653L14.7594 16.2023L14.7279 16.1589" fill="white"/>
<path d="M14.6727 16.2653L14.7058 16.1634L14.7568 16.1799" fill="white"/>
<path d="M16.5714 17.8483L16.5135 18.0266L16.6026 18.0556" fill="white"/>
<path d="M16.5714 17.8483L16.6294 18.0266L16.5402 18.0556" fill="white"/>
<path d="M16.7498 17.9778H16.5623V18.0715" fill="white"/>
<path d="M16.7498 17.9778L16.5981 18.088L16.543 18.0121" fill="white"/>
<path d="M16.3931 17.9778L16.5448 18.088L16.5999 18.0121" fill="white"/>
<path d="M16.3931 17.9778H16.5806V18.0715" fill="white"/>
<path d="M16.6816 18.1874L16.6237 18.0091L16.5345 18.038" fill="white"/>
<path d="M16.6816 18.1874L16.5299 18.0772L16.5851 18.0013" fill="white"/>
<path d="M16.4612 18.1874L16.6129 18.0772L16.5578 18.0013" fill="white"/>
<path d="M16.4612 18.1874L16.5191 18.0091L16.6083 18.038" fill="white"/>
<path d="M17.0214 17.4214L16.975 17.564L17.0463 17.5872" fill="white"/>
<path d="M17.0214 17.4214L17.0677 17.564L16.9964 17.5872" fill="white"/>
<path d="M17.1641 17.525H17.0141V17.6" fill="white"/>
<path d="M17.1641 17.525L17.0427 17.6132L16.9986 17.5525" fill="white"/>
<path d="M16.8788 17.525L17.0001 17.6132L17.0442 17.5525" fill="white"/>
<path d="M16.8788 17.525H17.0288V17.6" fill="white"/>
<path d="M17.1096 17.6927L17.0633 17.5501L16.9919 17.5733" fill="white"/>
<path d="M17.1096 17.6927L16.9883 17.6046L17.0324 17.5439" fill="white"/>
<path d="M16.9333 17.6927L17.0547 17.6046L17.0106 17.5439" fill="white"/>
<path d="M16.9333 17.6927L16.9797 17.5501L17.051 17.5733" fill="white"/>
<path d="M16.1572 17.2928L16.1109 17.4355L16.1822 17.4587" fill="white"/>
<path d="M16.1572 17.2928L16.2036 17.4355L16.1322 17.4587" fill="white"/>
<path d="M16.2998 17.3965H16.1498V17.4715" fill="white"/>
<path d="M16.2998 17.3965L16.1785 17.4847L16.1344 17.424" fill="white"/>
<path d="M16.0145 17.3965L16.1359 17.4847L16.18 17.424" fill="white"/>
<path d="M16.0145 17.3965H16.1645V17.4715" fill="white"/>
<path d="M16.2454 17.5642L16.199 17.4216L16.1277 17.4447" fill="white"/>
<path d="M16.2454 17.5642L16.124 17.476L16.1681 17.4154" fill="white"/>
<path d="M16.069 17.5642L16.1903 17.476L16.1462 17.4154" fill="white"/>
<path d="M16.069 17.5642L16.1153 17.4216L16.1867 17.4447" fill="white"/>
<path d="M12.8928 17.0608L12.8233 17.2748L12.9303 17.3095" fill="white"/>
<path d="M12.8928 17.0608L12.9624 17.2748L12.8554 17.3095" fill="white"/>
<path d="M13.1068 17.2162H12.8818V17.3287" fill="white"/>
<path d="M13.1068 17.2162L12.9248 17.3484L12.8587 17.2574" fill="white"/>
<path d="M12.6788 17.2162L12.8609 17.3484L12.927 17.2574" fill="white"/>
<path d="M12.6788 17.2162H12.9038V17.3287" fill="white"/>
<path d="M13.0251 17.4678L12.9556 17.2538L12.8486 17.2886" fill="white"/>
<path d="M13.0251 17.4678L12.8431 17.3355L12.9092 17.2445" fill="white"/>
<path d="M12.7606 17.4678L12.9426 17.3355L12.8765 17.2445" fill="white"/>
<path d="M12.7606 17.4678L12.8301 17.2538L12.9371 17.2886" fill="white"/>
<path d="M15 18.5322L14.9768 18.6036L15.0125 18.6151" fill="white"/>
<path d="M15 18.5322L15.0232 18.6036L14.9875 18.6151" fill="white"/>
<path d="M15.0714 18.584H14.9964V18.6215" fill="white"/>
<path d="M15.0714 18.584L15.0107 18.6281L14.9887 18.5977" fill="white"/>
<path d="M14.9287 18.584L14.9894 18.6281L15.0114 18.5977" fill="white"/>
<path d="M14.9287 18.584H15.0037V18.6215" fill="white"/>
<path d="M15.0441 18.6678L15.0209 18.5965L14.9852 18.6081" fill="white"/>
<path d="M15.0441 18.6678L14.9834 18.6238L15.0054 18.5934" fill="white"/>
<path d="M14.9559 18.6678L15.0166 18.6238L14.9946 18.5934" fill="white"/>
<path d="M14.9559 18.6678L14.9791 18.5965L15.0148 18.6081" fill="white"/>
</g>
</svg>
