<svg width="36" height="45" viewBox="0 0 36 45" fill="none" xmlns="http://www.w3.org/2000/svg">
    <path fill-rule="evenodd" clip-rule="evenodd" d="M3.42724 24.5L32.5728 24.5C34.1894 24.5 35.5 25.8152 35.5 27.4377C35.5 28.2168 35.1916 28.964 34.6426 29.5149L20.0699 44.1396C18.9267 45.2868 17.0733 45.2868 15.9301 44.1396L1.35737 29.5149C0.21421 28.3677 0.21421 26.5077 1.35737 25.3604C1.90633 24.8095 2.65089 24.5 3.42724 24.5Z" fill="white"/>
    <path d="M12 3.5C12 1.84315 13.3431 0.5 15 0.5H21C22.6569 0.5 24 1.84315 24 3.5V27.5C24 29.1569 22.6569 30.5 21 30.5H15C13.3431 30.5 12 29.1569 12 27.5V3.5Z" fill="white"/>
</svg>
