<svg width="35" height="47" viewBox="0 0 35 47" fill="none" xmlns="http://www.w3.org/2000/svg">
    <path fill-rule="evenodd" clip-rule="evenodd" d="M25.3955 0.553338L0.667773 18.2998C-0.0536961 18.8176 -0.215847 19.8181 0.305599 20.5345C0.438499 20.717 0.608721 20.8697 0.805132 20.9825L13.5605 28.3058C14.3191 28.7414 14.5883 29.6989 14.1665 30.4616L6.74749 43.8792C6.31907 44.6541 6.60432 45.627 7.38463 46.0524C7.93039 46.35 8.59991 46.3088 9.10452 45.9467L33.8322 28.2002C34.5537 27.6824 34.7158 26.6819 34.1944 25.9655C34.0615 25.783 33.8913 25.6303 33.6949 25.5175L20.9395 18.1942C20.1809 17.7586 19.9117 16.8011 20.3335 16.0384L27.7525 2.62076C28.1809 1.84594 27.8957 0.872965 27.1154 0.447554C26.5696 0.150016 25.9001 0.191197 25.3955 0.553338Z" fill="white" />
</svg>