<svg width="46" height="43" viewBox="0 0 46 43" fill="none" xmlns="http://www.w3.org/2000/svg">
    <path d="M18.1744 6.18778C20.0628 2.36133 21.007 0.448109 22.426 0.127118C22.8692 0.0268626 23.3292 0.0268626 23.7724 0.127118C25.1914 0.448109 26.1356 2.36133 28.0241 6.18777L29.8418 9.87087C30.3969 10.9956 30.6744 11.558 31.1221 11.9548C31.2696 12.0855 31.4294 12.2016 31.5993 12.3015C32.115 12.6047 32.7356 12.6948 33.9769 12.8752L38.0414 13.4658C42.2641 14.0794 44.3755 14.3862 45.1192 15.6366C45.3515 16.0271 45.4937 16.4645 45.5353 16.917C45.6685 18.3657 44.1407 19.855 41.0852 22.8334L38.144 25.7004C37.2458 26.5759 36.7967 27.0137 36.5577 27.562C36.479 27.7427 36.418 27.9306 36.3755 28.123C36.2465 28.7071 36.3525 29.3252 36.5645 30.5615L37.2588 34.6096C37.9802 38.8153 38.3408 40.9181 37.3815 42.0119C37.0819 42.3535 36.7098 42.6239 36.2923 42.8032C34.9556 43.3776 33.0672 42.3848 29.2903 40.3991L25.6549 38.4879C24.5446 37.9042 23.9895 37.6124 23.3941 37.5545C23.198 37.5355 23.0005 37.5355 22.8043 37.5545C22.2089 37.6124 21.6538 37.9042 20.5436 38.4879L16.9082 40.3991C13.1313 42.3848 11.2428 43.3776 9.90615 42.8032C9.48868 42.6239 9.11654 42.3535 8.81692 42.0119C7.85761 40.9181 8.21827 38.8153 8.93959 34.6097L9.63391 30.5615C9.84594 29.3252 9.95195 28.7071 9.82295 28.123C9.78046 27.9306 9.71942 27.7427 9.6407 27.562C9.40172 27.0137 8.95263 26.5759 8.05445 25.7004L5.11327 22.8334C2.05771 19.855 0.529924 18.3657 0.663135 16.917C0.704741 16.4645 0.846885 16.0271 1.07919 15.6366C1.82295 14.3862 3.9343 14.0794 8.15699 13.4658L12.2216 12.8752C13.4628 12.6948 14.0835 12.6047 14.5991 12.3015C14.769 12.2016 14.9288 12.0855 15.0763 11.9548C15.524 11.558 15.8016 10.9956 16.3567 9.87087L18.1744 6.18778Z" fill="white"/>
</svg>
