<svg width="94" height="106" viewBox="0 0 94 106" fill="none" xmlns="http://www.w3.org/2000/svg">
    <g filter="url(#filter0_d_11_6906)">
        <path fill-rule="evenodd" clip-rule="evenodd" d="M55.3955 15.5533L30.6678 33.2998C29.9463 33.8176 29.7842 34.8181 30.3056 35.5345C30.4385 35.717 30.6087 35.8697 30.8051 35.9825L43.5605 43.3058C44.3191 43.7414 44.5883 44.6989 44.1665 45.4616L36.7475 58.8792C36.3191 59.6541 36.6043 60.627 37.3846 61.0524C37.9304 61.35 38.5999 61.3088 39.1045 60.9467L63.8322 43.2002C64.5537 42.6824 64.7158 41.6819 64.1944 40.9655C64.0615 40.783 63.8913 40.6303 63.6949 40.5175L50.9395 33.1942C50.1809 32.7586 49.9117 31.8011 50.3335 31.0384L57.7525 17.6208C58.1809 16.8459 57.8957 15.873 57.1154 15.4476C56.5696 15.15 55.9001 15.1912 55.3955 15.5533Z" fill="white"/>
    </g>
    <defs>
        <filter id="filter0_d_11_6906" x="0.5" y="0.25" width="93.5" height="105" filterUnits="userSpaceOnUse" color-interpolation-filters="sRGB">
            <feFlood flood-opacity="0" result="BackgroundImageFix"/>
            <feColorMatrix in="SourceAlpha" type="matrix" values="0 0 0 0 0 0 0 0 0 0 0 0 0 0 0 0 0 0 127 0" result="hardAlpha"/>
            <feOffset dy="14.5"/>
            <feGaussianBlur stdDeviation="14.75"/>
            <feColorMatrix type="matrix" values="0 0 0 0 0 0 0 0 0 0 0 0 0 0 0 0 0 0 0.08 0"/>
            <feBlend mode="normal" in2="BackgroundImageFix" result="effect1_dropShadow_11_6906"/>
            <feBlend mode="normal" in="SourceGraphic" in2="effect1_dropShadow_11_6906" result="shape"/>
        </filter>
    </defs>
</svg>
