<svg width="47" height="38" viewBox="0 0 47 38" fill="none" xmlns="http://www.w3.org/2000/svg">
    <path fill-rule="evenodd" clip-rule="evenodd" d="M18.4961 1.09072L8.78052 10.7857L3.31132 10.7857C1.48253 10.7857 0 12.2683 0 14.097V23.903C0 25.7318 1.48253 27.2143 3.31132 27.2143L8.78052 27.2143L18.4961 36.9093C20.5831 38.9919 24.1464 37.5137 24.1464 34.5653V3.43466C24.1464 0.486279 20.5831 -0.991891 18.4961 1.09072Z" fill="white"/>
    <path d="M41.4229 32.6905C41.4229 32.6905 44.1668 26.561 44.1668 19C44.1668 11.4389 41.4229 5.30951 41.4229 5.30951" stroke="white" stroke-width="4.16667" stroke-linecap="round" stroke-linejoin="round"/>
    <path d="M34.2886 25.0238C34.2886 25.0238 35.3861 22.3269 35.3861 19C35.3861 15.6731 34.2886 12.9762 34.2886 12.9762" stroke="white" stroke-width="4.16667" stroke-linecap="round" stroke-linejoin="round"/>
</svg>
