<svg width="49" height="50" viewBox="0 0 49 50" fill="none" xmlns="http://www.w3.org/2000/svg">
    <path d="M13.1028 7.38907L14.2552 9.12462L13.1028 7.38907ZM13.2427 6.69595L14.9783 5.5435L14.9782 5.54349L13.2427 6.69595ZM22.517 46.3362L22.7354 44.2644H22.7354L22.517 46.3362ZM22.4121 47.3307L22.1937 49.4025L22.1937 49.4025L22.4121 47.3307ZM12.5496 6.556L11.3971 4.82045L12.5496 6.556ZM27.0981 3.0029L26.8787 5.07465L27.0981 3.0029ZM26.5482 3.44748L28.6199 3.66684V3.66684L26.5482 3.44748ZM37.2062 43.6043L36.0298 41.8849L36.0297 41.8849L37.2062 43.6043ZM36.6415 42.779L37.8179 44.4984L37.8179 44.4984L36.6415 42.779ZM26.9928 3.99734L27.2121 1.92559L26.9928 3.99734ZM14.2552 9.12462C15.4438 8.33538 15.7675 6.73206 14.9783 5.5435L11.5071 7.84839C11.0234 7.11992 11.2218 6.13724 11.9503 5.65352L14.2552 9.12462ZM5.66683 25.1663C5.66683 18.4611 9.07902 12.5617 14.2552 9.12462L11.9503 5.65352C5.65509 9.8337 1.50016 17.0135 1.50016 25.1663H5.66683ZM22.7354 44.2644C13.1558 43.2544 5.66683 35.0983 5.66683 25.1663H1.50016C1.50016 37.2343 10.6025 47.175 22.2985 48.4081L22.7354 44.2644ZM25.0336 47.1043C25.1832 45.6854 24.1543 44.4139 22.7354 44.2644L22.2985 48.4081C21.4289 48.3164 20.7983 47.5371 20.8899 46.6674L25.0336 47.1043ZM22.1937 49.4025C23.6126 49.5521 24.8841 48.5232 25.0336 47.1043L20.8899 46.6674C20.9816 45.7978 21.7609 45.1672 22.6305 45.2588L22.1937 49.4025ZM0.500163 25.1663C0.500163 37.747 9.98978 48.116 22.1937 49.4025L22.6305 45.2588C12.543 44.1954 4.66683 35.6109 4.66683 25.1663H0.500163ZM11.3971 4.82045C4.83347 9.17889 0.500163 16.6659 0.500163 25.1663H4.66683C4.66683 18.1137 8.2572 11.9071 13.702 8.29155L11.3971 4.82045ZM14.9782 5.54349C14.189 4.35493 12.5857 4.03121 11.3971 4.82045L13.702 8.29155C12.9736 8.77528 11.9909 8.57687 11.5072 7.8484L14.9782 5.54349ZM27.3174 0.931149C25.8986 0.780923 24.6267 1.80931 24.4764 3.22811L28.6199 3.66684C28.5279 4.53643 27.7483 5.16673 26.8787 5.07465L27.3174 0.931149ZM49 25.1663C49 12.5893 39.5161 2.22277 27.3174 0.931149L26.8787 5.07465C36.9619 6.14229 44.8334 14.7248 44.8334 25.1663H49ZM38.3826 45.3237C44.7893 40.9401 49 33.5454 49 25.1663H44.8334C44.8334 32.1184 41.3447 38.2483 36.0298 41.8849L38.3826 45.3237ZM34.7918 44.6504C35.5975 45.8279 37.2051 46.1293 38.3826 45.3237L36.0297 41.8849C36.7514 41.3911 37.7368 41.5759 38.2306 42.2975L34.7918 44.6504ZM35.4651 41.0596C34.2876 41.8652 33.9861 43.4729 34.7918 44.6504L38.2306 42.2975C38.7244 43.0192 38.5396 44.0046 37.8179 44.4984L35.4651 41.0596ZM43.8334 25.1663C43.8334 31.776 40.5178 37.6024 35.4651 41.0596L37.8179 44.4984C43.9627 40.294 48 33.2028 48 25.1663H43.8334ZM26.7734 6.0691C36.3489 7.08297 43.8334 15.2372 43.8334 25.1663H48C48 13.1018 38.9031 3.16346 27.2121 1.92559L26.7734 6.0691ZM24.4764 3.22811C24.3262 4.64692 25.3546 5.91887 26.7734 6.0691L27.2121 1.92559C28.0817 2.01766 28.712 2.79725 28.6199 3.66684L24.4764 3.22811Z" fill="white"/>
    <path fill-rule="evenodd" clip-rule="evenodd" d="M31.4165 36.2065C31.4165 34.7216 33.2117 33.978 34.2617 35.028L45.9957 46.762C47.0456 47.8119 46.302 49.6072 44.8172 49.6072H33.0832C32.1627 49.6072 31.4165 48.861 31.4165 47.9405V36.2065Z" fill="white"/>
    <path fill-rule="evenodd" clip-rule="evenodd" d="M18.0835 14.0797C18.0835 15.5645 16.2883 16.3081 15.2383 15.2582L3.8254 3.84526C2.77546 2.79532 3.51907 1.00008 5.00391 1.00008L16.4168 1.00008C17.3373 1.00008 18.0835 1.74627 18.0835 2.66675V14.0797Z" fill="white"/>
</svg>
