<svg width="62" height="39" viewBox="0 0 62 39" fill="none" xmlns="http://www.w3.org/2000/svg">
    <path fill-rule="evenodd" clip-rule="evenodd" d="M18.9149 0.833496C8.56019 0.833496 0.166016 9.22767 0.166016 19.5824C0.166016 29.9371 8.5602 38.3313 18.9149 38.3313H43.0838C53.4385 38.3313 61.8327 29.9371 61.8327 19.5824C61.8327 9.22767 53.4385 0.833496 43.0838 0.833496H18.9149ZM16.4161 24.1669C18.9474 24.1669 20.9994 22.1148 20.9994 19.5835C20.9994 17.0522 18.9474 15.0002 16.4161 15.0002C13.8848 15.0002 11.8328 17.0522 11.8328 19.5835C11.8328 22.1148 13.8848 24.1669 16.4161 24.1669ZM35.1659 19.5835C35.1659 22.1148 33.1139 24.1669 30.5826 24.1669C28.0513 24.1669 25.9993 22.1148 25.9993 19.5835C25.9993 17.0522 28.0513 15.0002 30.5826 15.0002C33.1139 15.0002 35.1659 17.0522 35.1659 19.5835ZM44.7493 24.1669C47.2807 24.1669 49.3327 22.1148 49.3327 19.5835C49.3327 17.0522 47.2807 15.0002 44.7493 15.0002C42.218 15.0002 40.166 17.0522 40.166 19.5835C40.166 22.1148 42.218 24.1669 44.7493 24.1669Z" fill="white" />
</svg>